<?xml version="1.0" encoding="utf-8"?>
<!-- Generator: Adobe Illustrator 16.0.0, SVG Export Plug-In . SVG Version: 6.00 Build 0)  -->
<!DOCTYPE svg PUBLIC "-//W3C//DTD SVG 1.1//EN" "http://www.w3.org/Graphics/SVG/1.1/DTD/svg11.dtd">
<svg version="1.1" id="Layer_1" xmlns="http://www.w3.org/2000/svg" xmlns:xlink="http://www.w3.org/1999/xlink" x="0px" y="0px"
	 width="595.28px" height="841.89px" viewBox="0 0 595.28 841.89" enable-background="new 0 0 595.28 841.89" xml:space="preserve">
<g>
	
		<line fill="none" stroke="#000000" stroke-width="0.5872" stroke-miterlimit="10" x1="382.822" y1="344.928" x2="506.713" y2="344.928"/>
</g>
<g>
	<defs>
		<rect id="SVGID_1_" x="35.443" y="483.006" width="224.755" height="9.362"/>
	</defs>
	<clipPath id="SVGID_2_">
		<use xlink:href="#SVGID_1_"  overflow="visible"/>
	</clipPath>
	<g clip-path="url(#SVGID_2_)">
		<defs>
			<rect id="SVGID_3_" x="-148.771" y="-190.737" width="1028.104" height="1458.511"/>
		</defs>
		<clipPath id="SVGID_4_">
			<use xlink:href="#SVGID_3_"  overflow="visible"/>
		</clipPath>
		<polygon clip-path="url(#SVGID_4_)" fill-rule="evenodd" clip-rule="evenodd" fill="#FFFFFF" points="245.38,491.428 
			259.278,487.708 245.38,483.987 		"/>
		<polygon clip-path="url(#SVGID_4_)" fill-rule="evenodd" clip-rule="evenodd" fill="#FFFFFF" points="50.249,483.987 
			36.351,487.708 50.249,491.428 		"/>
	</g>
</g>
<g>
	
		<line fill="none" stroke="#000000" stroke-width="0.7465" stroke-miterlimit="10" x1="47.707" y1="487.666" x2="247.916" y2="487.666"/>
</g>
<g>
	<defs>
		<rect id="SVGID_5_" x="266.153" y="483.006" width="224.752" height="9.362"/>
	</defs>
	<clipPath id="SVGID_6_">
		<use xlink:href="#SVGID_5_"  overflow="visible"/>
	</clipPath>
	<g clip-path="url(#SVGID_6_)">
		<defs>
			<rect id="SVGID_7_" x="-148.771" y="-190.737" width="1028.104" height="1458.511"/>
		</defs>
		<clipPath id="SVGID_8_">
			<use xlink:href="#SVGID_7_"  overflow="visible"/>
		</clipPath>
		<polygon clip-path="url(#SVGID_8_)" fill-rule="evenodd" clip-rule="evenodd" fill="#FFFFFF" points="476.115,491.428 
			490.01,487.708 476.115,483.987 		"/>
		<polygon clip-path="url(#SVGID_8_)" fill-rule="evenodd" clip-rule="evenodd" fill="#FFFFFF" points="280.982,483.987 
			267.086,487.708 280.982,491.428 		"/>
	</g>
</g>
<g>
	
		<line fill="none" stroke="#000000" stroke-width="0.7465" stroke-miterlimit="10" x1="278.441" y1="487.666" x2="478.648" y2="487.666"/>
</g>
<g>
	<defs>
		<rect id="SVGID_9_" x="150.787" y="340.268" width="224.75" height="9.365"/>
	</defs>
	<clipPath id="SVGID_10_">
		<use xlink:href="#SVGID_9_"  overflow="visible"/>
	</clipPath>
	<g clip-path="url(#SVGID_10_)">
		<defs>
			<rect id="SVGID_11_" x="-148.771" y="-190.737" width="1028.104" height="1458.511"/>
		</defs>
		<clipPath id="SVGID_12_">
			<use xlink:href="#SVGID_11_"  overflow="visible"/>
		</clipPath>
		<polygon clip-path="url(#SVGID_12_)" fill-rule="evenodd" clip-rule="evenodd" fill="#FFFFFF" points="360.748,348.692 
			374.642,344.971 360.748,341.249 		"/>
		<polygon clip-path="url(#SVGID_12_)" fill-rule="evenodd" clip-rule="evenodd" fill="#FFFFFF" points="165.614,341.249 
			151.718,344.969 165.614,348.692 		"/>
	</g>
</g>
<g>
	
		<line fill="none" stroke="#000000" stroke-width="0.7465" stroke-miterlimit="10" x1="163.074" y1="344.928" x2="363.281" y2="344.928"/>
</g>
<g>
	<defs>
		<rect id="SVGID_13_" x="258.502" y="210.774" width="9.369" height="277.667"/>
	</defs>
	<clipPath id="SVGID_14_">
		<use xlink:href="#SVGID_13_"  overflow="visible"/>
	</clipPath>
	<g clip-path="url(#SVGID_14_)">
		<defs>
			<rect id="SVGID_15_" x="-148.771" y="-190.737" width="1028.104" height="1458.511"/>
		</defs>
		<clipPath id="SVGID_16_">
			<use xlink:href="#SVGID_15_"  overflow="visible"/>
		</clipPath>
		<polygon clip-path="url(#SVGID_16_)" fill-rule="evenodd" clip-rule="evenodd" fill="#FFFFFF" points="259.507,473.441 
			263.23,487.327 266.954,473.441 		"/>
		<polygon clip-path="url(#SVGID_16_)" fill-rule="evenodd" clip-rule="evenodd" fill="#FFFFFF" points="266.855,225.398 
			263.134,211.51 259.408,225.398 		"/>
	</g>
</g>
<g>
	
		<line fill="none" stroke="#000000" stroke-width="0.7465" stroke-miterlimit="10" x1="263.186" y1="223.038" x2="263.186" y2="476.175"/>
</g>
<g>
	<defs>
		<rect id="SVGID_17_" x="148.113" y="212" width="112.909" height="132.643"/>
	</defs>
	<clipPath id="SVGID_18_">
		<use xlink:href="#SVGID_17_"  overflow="visible"/>
	</clipPath>
	<g clip-path="url(#SVGID_18_)">
		<defs>
			<rect id="SVGID_19_" x="-148.771" y="-190.737" width="1028.104" height="1458.511"/>
		</defs>
		<clipPath id="SVGID_20_">
			<use xlink:href="#SVGID_19_"  overflow="visible"/>
		</clipPath>
		<polygon clip-path="url(#SVGID_20_)" fill-rule="evenodd" clip-rule="evenodd" fill="#FFFFFF" points="253.951,225.974 
			260.11,212.982 248.274,221.156 		"/>
		<polygon clip-path="url(#SVGID_20_)" fill-rule="evenodd" clip-rule="evenodd" fill="#FFFFFF" points="155.204,330.948 
			149.045,343.941 160.881,335.766 		"/>
	</g>
</g>
<g>
	
		<line fill="none" stroke="#000000" stroke-width="0.7465" stroke-miterlimit="10" x1="156.354" y1="335.266" x2="252.798" y2="221.811"/>
</g>
<g>
	<defs>
		<rect id="SVGID_21_" x="265.884" y="212.246" width="111.761" height="131.969"/>
	</defs>
	<clipPath id="SVGID_22_">
		<use xlink:href="#SVGID_21_"  overflow="visible"/>
	</clipPath>
	<g clip-path="url(#SVGID_22_)">
		<defs>
			<rect id="SVGID_23_" x="-148.771" y="-190.737" width="1028.104" height="1458.511"/>
		</defs>
		<clipPath id="SVGID_24_">
			<use xlink:href="#SVGID_23_"  overflow="visible"/>
		</clipPath>
		<polygon clip-path="url(#SVGID_24_)" fill-rule="evenodd" clip-rule="evenodd" fill="#FFFFFF" points="364.943,335.01 
			376.744,343.227 370.633,330.213 		"/>
		<polygon clip-path="url(#SVGID_24_)" fill-rule="evenodd" clip-rule="evenodd" fill="#FFFFFF" points="278.619,221.2 
			266.815,212.982 272.927,225.997 		"/>
	</g>
</g>
<g>
	
		<line fill="none" stroke="#000000" stroke-width="0.7465" stroke-miterlimit="10" x1="274.15" y1="221.811" x2="369.371" y2="334.657"/>
</g>
<g>
	<defs>
		<rect id="SVGID_25_" x="377.229" y="344.192" width="112.475" height="140.935"/>
	</defs>
	<clipPath id="SVGID_26_">
		<use xlink:href="#SVGID_25_"  overflow="visible"/>
	</clipPath>
	<g clip-path="url(#SVGID_26_)">
		<defs>
			<rect id="SVGID_27_" x="-148.771" y="-190.737" width="1028.104" height="1458.511"/>
		</defs>
		<clipPath id="SVGID_28_">
			<use xlink:href="#SVGID_27_"  overflow="visible"/>
		</clipPath>
		<polygon clip-path="url(#SVGID_28_)" fill-rule="evenodd" clip-rule="evenodd" fill="#FFFFFF" points="477.243,475.862 
			488.803,484.424 483.077,471.234 		"/>
		<polygon clip-path="url(#SVGID_28_)" fill-rule="evenodd" clip-rule="evenodd" fill="#FFFFFF" points="389.719,353.735 
			378.162,345.172 383.886,358.364 		"/>
	</g>
</g>
<g>
	
		<line fill="none" stroke="#000000" stroke-width="0.7465" stroke-miterlimit="10" x1="385.25" y1="354.002" x2="481.695" y2="475.386"/>
</g>
<g>
	<defs>
		<rect id="SVGID_29_" x="35.394" y="345.418" width="113.745" height="139.67"/>
	</defs>
	<clipPath id="SVGID_30_">
		<use xlink:href="#SVGID_29_"  overflow="visible"/>
	</clipPath>
	<g clip-path="url(#SVGID_30_)">
		<defs>
			<rect id="SVGID_31_" x="-148.771" y="-190.737" width="1028.104" height="1458.511"/>
		</defs>
		<clipPath id="SVGID_32_">
			<use xlink:href="#SVGID_31_"  overflow="visible"/>
		</clipPath>
		<polygon clip-path="url(#SVGID_32_)" fill-rule="evenodd" clip-rule="evenodd" fill="#FFFFFF" points="42.172,471.234 
			36.302,484.358 47.954,475.925 		"/>
		<polygon clip-path="url(#SVGID_32_)" fill-rule="evenodd" clip-rule="evenodd" fill="#FFFFFF" points="142.343,359.524 
			148.214,346.4 136.562,354.832 		"/>
	</g>
</g>
<g>
	
		<line fill="none" stroke="#000000" stroke-width="0.7465" stroke-miterlimit="10" x1="141.104" y1="355.228" x2="43.439" y2="475.395"/>
</g>
<g>
	<defs>
		<rect id="SVGID_33_" x="150.247" y="347.38" width="109.27" height="139.22"/>
	</defs>
	<clipPath id="SVGID_34_">
		<use xlink:href="#SVGID_33_"  overflow="visible"/>
	</clipPath>
	<g clip-path="url(#SVGID_34_)">
		<defs>
			<rect id="SVGID_35_" x="-148.771" y="-190.737" width="1028.104" height="1458.511"/>
		</defs>
		<clipPath id="SVGID_36_">
			<use xlink:href="#SVGID_35_"  overflow="visible"/>
		</clipPath>
		<polygon clip-path="url(#SVGID_36_)" fill-rule="evenodd" clip-rule="evenodd" fill="#FFFFFF" points="247.122,477.04 
			258.607,485.696 252.993,472.46 		"/>
		<polygon clip-path="url(#SVGID_36_)" fill-rule="evenodd" clip-rule="evenodd" fill="#FFFFFF" points="162.64,356.774 
			151.154,348.116 156.769,361.353 		"/>
	</g>
</g>
<g>
	
		<line fill="none" stroke="#000000" stroke-width="0.7465" stroke-miterlimit="10" x1="158.192" y1="357.191" x2="251.584" y2="476.746"/>
</g>
<g>
	<defs>
		<rect id="SVGID_37_" x="268.14" y="344.683" width="109.709" height="140.574"/>
	</defs>
	<clipPath id="SVGID_38_">
		<use xlink:href="#SVGID_37_"  overflow="visible"/>
	</clipPath>
	<g clip-path="url(#SVGID_38_)">
		<defs>
			<rect id="SVGID_39_" x="-148.771" y="-190.737" width="1028.104" height="1458.511"/>
		</defs>
		<clipPath id="SVGID_40_">
			<use xlink:href="#SVGID_39_"  overflow="visible"/>
		</clipPath>
		<polygon clip-path="url(#SVGID_40_)" fill-rule="evenodd" clip-rule="evenodd" fill="#FFFFFF" points="371.335,358.909 
			376.929,345.664 365.456,354.339 		"/>
		<polygon clip-path="url(#SVGID_40_)" fill-rule="evenodd" clip-rule="evenodd" fill="#FFFFFF" points="274.639,471.234 
			269.047,484.478 280.518,475.803 		"/>
	</g>
</g>
<g>
	
		<line fill="none" stroke="#000000" stroke-width="0.7465" stroke-miterlimit="10" x1="275.989" y1="475.513" x2="369.991" y2="354.739"/>
</g>
<g>
	<defs>
		<rect id="SVGID_41_" x="158.34" y="348.362" width="326.229" height="135.445"/>
	</defs>
	<clipPath id="SVGID_42_">
		<use xlink:href="#SVGID_41_"  overflow="visible"/>
	</clipPath>
	<g clip-path="url(#SVGID_42_)">
		<defs>
			<rect id="SVGID_43_" x="-148.771" y="-190.737" width="1028.104" height="1458.511"/>
		</defs>
		<clipPath id="SVGID_44_">
			<use xlink:href="#SVGID_43_"  overflow="visible"/>
		</clipPath>
		<polygon clip-path="url(#SVGID_44_)" fill-rule="evenodd" clip-rule="evenodd" fill="#FFFFFF" points="469.396,480.81 
			483.658,482.666 472.236,473.932 		"/>
		<polygon clip-path="url(#SVGID_44_)" fill-rule="evenodd" clip-rule="evenodd" fill="#FFFFFF" points="173.538,350.954 
			159.272,349.098 170.696,357.832 		"/>
	</g>
</g>
<g>
	
		<line fill="none" stroke="#000000" stroke-width="0.7465" stroke-miterlimit="10" x1="169.794" y1="353.512" x2="473.16" y2="478.556"/>
</g>
<g>
	<defs>
		<rect id="SVGID_45_" x="41.795" y="349.343" width="326.808" height="134.304"/>
	</defs>
	<clipPath id="SVGID_46_">
		<use xlink:href="#SVGID_45_"  overflow="visible"/>
	</clipPath>
	<g clip-path="url(#SVGID_46_)">
		<defs>
			<rect id="SVGID_47_" x="-148.771" y="-190.737" width="1028.104" height="1458.511"/>
		</defs>
		<clipPath id="SVGID_48_">
			<use xlink:href="#SVGID_47_"  overflow="visible"/>
		</clipPath>
		<polygon clip-path="url(#SVGID_48_)" fill-rule="evenodd" clip-rule="evenodd" fill="#FFFFFF" points="356.227,359.012 
			367.688,350.324 353.415,352.119 		"/>
		<polygon clip-path="url(#SVGID_48_)" fill-rule="evenodd" clip-rule="evenodd" fill="#FFFFFF" points="54.166,474.177 
			42.703,482.864 56.978,481.07 		"/>
	</g>
</g>
<g>
	
		<line fill="none" stroke="#000000" stroke-width="0.7839" stroke-miterlimit="10" x1="53.254" y1="478.524" x2="374.979" y2="349.525"/>
	<circle fill="#FFFFFF" cx="151.059" cy="340.114" r="24.68"/>
	<circle fill="none" stroke="#8C8C8C" stroke-width="0.8001" cx="151.059" cy="340.114" r="24.68"/>
	<text transform="matrix(1 0 0 1 140.4727 347.8979)" font-family="'Times-Roman'" font-size="23.5443">01</text>
	<circle fill="#FFFFFF" cx="382.101" cy="340.114" r="24.679"/>
	<circle fill="none" stroke="#8C8C8C" stroke-width="0.8001" cx="382.101" cy="340.114" r="24.679"/>
	<text transform="matrix(1 0 0 1 369.9609 347.8979)" font-family="'Times-Roman'" font-size="23.5443">02</text>
	<circle fill="#FFFFFF" cx="263.187" cy="211.991" r="24.681"/>
	<circle fill="none" stroke="#8C8C8C" stroke-width="0.8001" cx="263.187" cy="211.991" r="24.681"/>
	<text transform="matrix(1 0 0 1 250.6797 219.771)" font-family="'Times-Roman'" font-size="23.5443">04</text>
	<circle fill="#FFFFFF" cx="263.187" cy="487.666" r="24.681"/>
	<circle fill="none" stroke="#8C8C8C" stroke-width="0.8001" cx="263.187" cy="487.666" r="24.681"/>
	<text transform="matrix(1 0 0 1 250.7988 495.4468)" font-family="'Times-Roman'" font-size="23.5443">06</text>
	<circle fill="#FFFFFF" cx="37.395" cy="487.666" r="24.68"/>
	<circle fill="none" stroke="#8C8C8C" stroke-width="0.8001" cx="37.394" cy="487.666" r="24.679"/>
	<text transform="matrix(1 0 0 1 25.1367 495.4468)" font-family="'Times-Roman'" font-size="23.5443">05</text>
	<circle fill="#FFFFFF" cx="480.575" cy="487.666" r="24.679"/>
	<circle fill="none" stroke="#8C8C8C" stroke-width="0.8001" cx="480.574" cy="487.666" r="24.68"/>
	<text transform="matrix(1 0 0 1 468.6016 495.4468)" font-family="'Times-Roman'" font-size="23.5443">07</text>
	<circle fill="#FFFFFF" cx="512.324" cy="340.114" r="24.679"/>
	<circle fill="none" stroke="#8C8C8C" stroke-width="0.8001" cx="512.324" cy="340.114" r="24.679"/>
	<text transform="matrix(1 0 0 1 500.1367 347.8979)" font-family="'Times-Roman'" font-size="23.5443">03</text>
	<rect x="104.607" y="368.995" fill="#FFFFFF" width="317.158" height="76.664"/>
	
		<rect x="104.607" y="368.995" fill="none" stroke="#8C8C8C" stroke-width="0.8001" stroke-linejoin="round" stroke-miterlimit="10" width="317.158" height="76.664"/>
	<text transform="matrix(1 0 0 1 110.6782 414.0244)" font-family="'TitilliumWeb-Bold'" font-size="27.3616">initiating the subscription</text>
</g>
</svg>
