<?xml version="1.0" encoding="utf-8"?>
<!-- Generator: Adobe Illustrator 15.0.0, SVG Export Plug-In . SVG Version: 6.00 Build 0)  -->
<!DOCTYPE svg PUBLIC "-//W3C//DTD SVG 1.1//EN" "http://www.w3.org/Graphics/SVG/1.1/DTD/svg11.dtd">
<svg version="1.1" id="Layer_1" xmlns="http://www.w3.org/2000/svg" xmlns:xlink="http://www.w3.org/1999/xlink" x="0px" y="0px"
	 width="595.28px" height="841.89px" viewBox="0 0 595.28 841.89" enable-background="new 0 0 595.28 841.89" xml:space="preserve">
<polyline points="595.28,0 0,0 0,841.89 "/>
<text transform="matrix(1 0 0 1 -2.0005 79.4688)"><tspan x="0" y="0" fill="#FFFFFF" font-family="'Zapfino'" font-size="44.5699">WISDOM OF </tspan><tspan x="0" y="53.484" fill="#FFFFFF" font-family="'Zapfino'" font-size="44.5699">THE AGES</tspan></text>
<text transform="matrix(1 0 0 1 540.1377 125.5371)" writing-mode="tb"><tspan x="0" y="0" font-family="'FortyScript'" font-size="32.5898" glyph-orientation-vertical="0">YOUTHFULL</tspan><tspan x="0" y="293.309" font-family="'FortyScript'" font-size="32.5898" glyph-orientation-vertical="1">   </tspan><tspan x="0" y="320.472" font-family="'FortyScript'" font-size="32.5898" glyph-orientation-vertical="0">EXUBERANCE</tspan></text>
<g>
	<path fill-rule="evenodd" clip-rule="evenodd" d="M425.557,633.989c-0.826,0.438-0.184,1.993-1.016,1.83
		c0.318,2.332-1.464,4.192-2.236,6.099c-0.738,0.277-1.476,0.557-2.033,1.016c-0.596,2.506,0.667,4.132-0.203,5.895
		c0.815,0.203-0.068,4.678,0.203,5.082c0.143,3.827-1.688,8.9-1.626,13.823c0.037,2.985,0.489,5.945,0.203,8.74
		c-0.266,2.59-0.913,7.934-1.017,10.367c-0.241,1.546-0.946,3.131-0.609,5.692c-0.198-0.006-0.158-0.249-0.203-0.406
		c-0.601,3.172-0.272,6.33-1.017,9.351c0.197-0.006,0.157-0.249,0.203-0.407c-0.231,3.534-1.297,7.477-0.406,10.773
		c-1.504,0.854-0.054,2.438,0.203,3.456c-1.273,0.381-2.761,3.334-2.033,5.082c-0.807,0.86-0.844,1.514-1.423,2.236
		c0.127,0.482,0.273,0.945,0.813,1.016c-0.617,1.771,0.63,2.851-0.407,4.066c0.281,0.803,0.569,1.599,1.424,1.829
		c-0.128,1.743,0.149,3.081,1.219,4.065c-0.175,0.164-0.12,0.557-0.406,0.61c2.321,4.332,1.366,7.889,0.813,11.992
		c-0.58-0.218-0.273,1.24-0.813,1.627c1.146,0.039-1.114,2.092-0.203,2.032c0.498,0.571-0.609-0.032-0.609,0.609
		c0.482-0.382,0.379,1.277-0.203,0.813c-0.093,0.973,0.146,1.614,0.609,2.032c-0.072,0.286-0.357,0.019-0.406-0.202
		c-0.513,0.267,0.533,0.667,0.406,1.219c-0.924-0.68,0.982,2.135,0.203,2.847c1.104,0.614,2.224,3.161,0.813,3.455
		c0.614,0.859-0.167,0.982,0.203,1.626c-1.196,0.57-2.673,3.104-4.065,2.033c-0.182,0.264-1.262,1.438-2.033,1.423
		c0.09-0.296,0.179,0.021,0.407,0c-0.63-0.284-2.937,0.117-4.065,0.407c-2.051-0.352-4.432,0.638-6.709-0.204
		c-0.676,0.575-3.009,1.017-3.861,0.407c-0.298,0.558-1.335,0.358-0.813,0.812c-0.003,0.478-0.555-0.074-0.407-0.406
		c-1.232,0.081-1.814,0.281-2.846,0.406c-0.209,0.025-0.148-0.471-0.406-0.406c-0.105,0.026-0.519,0.605-0.609,0.609
		c-0.363,0.021,0.084-0.489,0.203-0.406c-0.644-0.448-0.551,0.143-1.22,0.203c-0.121,0.012-0.661-0.426-1.017-0.406
		c-0.4,0.022-0.5,0.608-0.812,0.609c-0.861,0.003-1.562-0.047-2.44,0c-1.805,0.099-3.517-0.484-5.284,0.407
		c-0.19-0.217-0.75-0.063-0.61-0.61c-0.311,0.153-1.777,0.8-1.22,0c-2.32,0.791-2.936,0.012-5.285,0.813
		c0.006-0.197,0.249-0.157,0.406-0.203c-1.558-0.232-3.146-0.115-4.064,0.406c-1.059-0.704-2.228-0.199-3.05,0.406
		c-0.511-0.087,0.338-0.438,0.609-0.406c-3.812-0.18-5.885-0.376-8.943,0c0.038-0.164,0.204-0.202,0.203-0.406
		c-1.008,0.448-4.154-0.499-4.676,0.203c-1.413-1.227-3.063-1.379-4.879-2.439c-0.206,0.132-0.21,0.468-0.609,0.406
		c0.015-0.931-2.255-2.322-3.252-3.862c-0.1-0.152,0.396-0.225,0.406-0.203c-0.432-0.889-1.15-1.132-1.423-1.422
		c0.178-0.568,0.486-1.005,0.609-1.627c0.867-0.329,1.698-1.117,2.643-2.236c0.624,0.576,2.573-1.072,2.236-0.406
		c3.119-1.516,4.591-1.565,7.928-2.235c2.058-1.195,5.78-0.726,7.521-2.236c4.623-0.513,8.012-2.911,11.79-5.082
		c-0.018-0.322,0.098-0.776-0.204-0.813c0.508-0.381,0.653-1.244,1.424-0.812c1.057-1.833,3.941-3.631,3.049-6.1
		c0.147-0.462,0.182-1.038,0.406-1.422c-1.721-4.107-3.329-8.325-5.488-11.993c-0.126-2.852-0.503-5.885,1.627-7.726
		c0.7-0.605,1.839-0.959,2.438-1.219c-0.264-1.31,0.159-1.333,0.407-2.439c-0.821-2.533-0.439-6.629-2.236-8.538
		c0.14-2.2,0.452-3.738-0.203-5.285c0.464-9.531,3.453-21.644,2.439-32.93c0.166-0.579,0.458-1.032,1.016-1.221
		c-0.839-0.5-1.962-1.394-3.049-1.016c-1.74-1.106-2.529-3.163-4.065-4.473c0.075-1.413-1.937-3.765,0.203-4.675
		c-2.001-2.862,1.5-4.782,1.017-7.318c1.224-0.605,1.483-2.176,2.643-2.846c-1.785-2.098-0.695-5.143-1.22-6.302
		c0.648-1.93,0.321-5.407,2.235-6.708c-0.466-0.402-0.138-1.376-0.609-1.017c0.758-4.369,0.354-8.645,1.423-13.619
		c-0.197,0.005-0.157,0.249-0.203,0.407c-0.173-3.88,0.038-7.267-0.406-11.587c-0.2-0.275-0.543-0.407-0.813-0.61
		c0.104-6.24,0.553-12.041,0.407-15.449c-0.039-2.656,0.491-6.029,1.219-8.537c0.034-0.51-0.312-0.637-0.609-0.814
		c-0.062-0.467,0.587-0.225,0.609-0.609c-0.102-6.281,2.244-13.801,3.456-19.311c-0.022-0.385-0.672-0.141-0.609-0.609
		c0.146-0.532,0.662-0.692,0.812-1.221c-0.391-1.816,0.316-4.017,0.813-6.301c-0.204-0.28-0.336,0.086-0.61-0.406
		c1.883-0.732,1.687-2.891,2.033-4.27c-2.982-2.059-1.719-5.768-2.439-9.351c0.422-2.032-0.408-5.291,0.406-7.114
		c-5.953-1.361-11.711-4.173-11.586-10.367c0.447-1.246,1.698-1.689,2.438-2.643c3.674,0.571,6.286-0.232,9.351-1.017
		c-3.68-1.136-11.212,1.558-12.603-3.049c0.651-0.604,0.937-2.847,0.609-4.065c1.083-0.385,0.848-1.615,1.423-2.846
		c-0.038-0.165-0.203-0.203-0.203-0.407c-6.736-1.922-0.475-9.429,0-13.416c0.652,0.179,0.422-0.526,0.813-0.61
		c0.112-0.45-0.389-0.289-0.406-0.609c1.555-1.824-0.783-4.119-0.407-5.895c-1.072-0.621-1.92-1.469-2.846-2.236
		c-0.188-0.828-0.073-1.959-1.016-2.033c0.316-1.725,0.243-6.458,1.626-8.131c-0.127-0.551-0.85-0.506-0.813-1.22
		c0.923-2.308-0.221-4.819,1.626-6.911c-0.362-6.779,1.089-15.136,4.065-20.531c-0.611-1.734-2.083-1.846-2.643-3.455
		c-0.592-1.705,0.625-4.35-1.016-5.691c1.666-6.669,6.312-10.357,10.977-14.027c9.461-2.684,23.565-3.507,33.337,0.61
		c3.197,1.348,5.338,3.993,8.132,5.285c3.006,3.483,6.497,6.919,7.928,11.384c0.509,0.035,0.493-0.455,0.812-0.609
		c6.938,0.279,17.189,0.204,19.718,6.911c0.03,0.376,0.688,0.124,0.813,0.406c-0.178,6.464-5.119,8.162-10.57,9.351
		c1.739,2.528,0.157,5.412,2.032,7.725c-0.756,4.038-0.46,8.994-0.812,13.213c-1.113,1.359-1.896,3.67-1.423,5.488
		c-1.289,3.184-3.208,5.737-4.27,9.147c-0.168,0.575,0.287,0.526,0.203,1.017c-0.771,0.583-0.93,1.781-1.626,2.439
		c-0.472-0.401-0.544-0.401-1.017,0c-0.583,5.828-3.297,10.811-8.537,13.01c-1.467,1.379-3.076,2.615-4.879,3.658
		c0.056,4.84-3.313,6.998-5.488,10.164c3.325,1.012,5.264,4.621,7.115,7.725c-0.341,2.561,0.905,5.276,0,7.114
		c0.571,0.241,0.953,0.673,1.219,1.22c0.148,0.555-0.403,0.41-0.406,0.813c0.854,1.476,0.613,2.907-0.203,4.269
		c0.141,2.236,0.381,3.817,0.203,6.302c0.499,1.198,0.002,3.186,0,4.675c0.765,0.049,0.457,1.17,1.22,1.221
		c-0.06,0.414-0.55,0.398-0.609,0.812c-0.543,6.146-1.918,12.17-0.61,18.701c-0.855,5.406,0.037,11.193,0.203,16.669
		c0.026,0.866-0.427,1.899-0.406,2.846c0.042,1.948-0.084,4.144-0.203,6.099c-0.033,0.547,0.122-0.061,0,0.406
		c-0.257,0.982-0.304,4.362-0.203,6.099c0.012,0.206,0.412,0.627,0.406,0.813c-0.031,0.97-0.678,1.928-0.609,2.846
		c0.354,4.789,0.02,10.532,0.812,15.449c0.009,0.52-0.151,0.247-0.406,0.202c-0.134,0.744,0.439,0.78,0.406,1.424
		c-0.173,0.037-0.191-0.08-0.203-0.203C425.312,629.095,425.046,632.419,425.557,633.989z M377.178,434.576
		c0.123,0.011,0.24,0.029,0.202,0.203c-0.229,0.521-1.079,1.625-1.626,1.829c-1.254,5.678,3.968,6.878,6.099,10.57
		c4.001,2.271,10.478,3.642,15.245,3.862c0.479,0.062,0.379,0.706,1.017,0.609c1.647-0.172,2.918,0.275,3.862,1.424
		c4.281,0.961,8.789,1.07,13.213,1.625c1.397,0.176,2.741,0.709,4.065,0.61c0.914-0.067,1.94-0.789,3.05-1.017
		c1.551-0.318,3.2-0.091,4.675-0.406c5.135-1.098,10.719-5.508,8.741-10.164c-0.744,0.134-0.78-0.439-1.423-0.406
		c-0.151,0.828,0.655,0.7,0.406,1.627c-0.685,0.754-1.753,0.436-2.643,0.609c-3.489-9.317-9.547-16.066-18.092-20.328
		c-6.361-1.602-13.819-2.436-21.141-1.829c-8.581,0.71-14.546,4.896-17.685,11.79c0.217,0.146,0.936,0.793,1.22,0.203
		c-0.257-0.285-1.073-0.012-0.813-0.812c0.469-0.192,0.655-0.014,1.423-0.203C376.746,434.795,376.755,434.803,377.178,434.576z
		 M437.144,442.504c0.979,0.458,3.013,0.757,3.455,0.203C439.226,442.58,437.784,441.84,437.144,442.504z M439.176,444.943
		c3.334,0.302,5.745-0.393,8.538,1.219c-0.246,0.043-0.125,0.226,0,0.406c-0.16,0.449-0.711,0.51-1.017,0.813
		c-1.649-1.162-6.426-1.152-8.334-0.203c3.285,1.016,8.869,0.689,12.806,1.626C451.182,442.943,442.988,444.768,439.176,444.943z
		 M374.737,461.002c-0.428,0.385-0.627,0.998-0.812,1.625c0.934-0.053-0.121,1.541,0.203,1.83c0.34-0.602,0.823-0.309,0.813,0.406
		c0.62,0.012,0.487-0.732,1.219-0.609c2.646,0.436,6.997,0.014,10.164,0.812c0.777,2.297,6.548,1.686,4.879,5.082
		c-1.607-0.116-2.4-0.848-3.252-1.219c-0.399-0.174-0.624-0.385-1.017-0.61c-1.792-1.031-1.886-1.034-4.269-1.017
		c-3.016,0.023-6.868-1.022-8.538,0.203c-1.69,1.242-1.76,3.371-1.017,6.099c1.096-0.146,1.385,0.513,1.83,1.017
		c-0.33,1.229-2.288,0.829-2.439,2.235c1.966-1.101,5.298-1.314,8.537-0.405c0.394-0.285,0.39-0.967,1.017-1.018
		c3.164,1.598,4.305,8.395,0.203,9.758c-0.396,1.84-1.807,2.665-4.065,2.643c-0.2-0.478-0.356-0.999-0.406-1.627
		c0.926-0.031,0.798-0.168,1.626,0c0.083-0.489-0.371-0.441-0.203-1.016c0.576-0.034,0.847-0.373,1.423-0.406
		c-0.132-1.352,0.797-1.643,1.22-2.439c0.392-2.488-0.967-3.383-2.846-4.473c-0.128,1.087,0.925,1.621,1.017,2.846
		c0.258,3.464-3.417,5.301-4.676,7.725c0.874,2.107,1.625,3.645,1.22,5.691c-0.067,0.342-0.86,0.869-1.017,1.424
		c-0.147,0.523,0.149,1.092,0,1.423c-0.702,1.562-3.788,5.292-3.455,7.114c0.47,2.572,4.271,1.197,5.895,2.846
		c-0.029,1.666-1.973,1.416-2.643,2.439c-0.461,3.066-0.877,3.381-1.22,6.098c5.104,0.745,9.419,1.164,13.62-1.016
		c0.417,0.803,1.804,0.635,2.032,1.627c-0.559,0.66-0.433,2.006-1.22,2.438c-4.104,2.142-8.614,2.903-13.619,3.862
		c0.045,0.385-0.229,0.448-0.204,0.813c0.701,1.129,1.374,2.284,1.83,3.659c2.891,1.541,6.397,3.457,10.57,3.049
		c3.803,1.599,9.942,0.795,14.433,0.406c3.856-0.449,6.577-3.225,9.757-5.285c1.044-0.676,2.568-1.756,3.456-2.846
		c0.413-0.508,0.374-1.237,0.812-1.627c0.179-0.157,0.663-0.025,0.813-0.203c0.521-0.615,0.982-1.774,1.627-2.643
		c0.622-0.838,1.568-1.762,1.829-2.438c0.859-2.228-0.035-4.253,2.032-5.285c5.943-2.122,8.512-9.94,7.521-16.06
		c-1.132-0.422-1.714,0.626-2.846,0.203c-1.391,4.521-0.373,9.831-5.285,12.197c-0.828-0.908-1.742-0.48-2.846-1.017
		c-0.347-1.765-0.607-3.512-2.236-4.675c-0.474-3.428-0.069-3.611,0.813-6.303c-0.934-0.717-0.581-2.617,0.609-2.846
		c-0.772-1.271-0.119-2.227,0.407-3.252c-0.872-1.068,0.711-4.293-0.61-6.098c2.527-1.83-1.327-4.813,0.813-6.709
		c-1.426-2.17-0.389-3.738-0.813-5.895c1.845-1.78,1.385-4.686-1.017-5.691c0.29,0.614,0.169,1.173-0.609,1.219
		c-0.62,0.011-1.035-0.184-1.22-0.609c0.573-2.146-0.117-6.484-3.05-5.082c0.425,0.969-1.775,2.854-0.406,3.456
		c-0.534,0.55-1.195,0.972-2.032,1.22c-0.251-0.766-1.325-0.708-1.627-1.424c-0.042-2.683-1.121-5.808-3.455-6.91
		c-0.205-0.098-0.792,0.293-1.017,0.203c-0.354-0.143-0.438-0.689-0.813-0.813c-1.956-0.646-4.431-0.394-6.707-0.813
		c-2.662-0.489-5.985-1.591-8.945-2.439c-3.792-1.086-6.474-2.244-8.74-4.064C375.977,451.267,374.183,455.834,374.737,461.002z
		 M437.347,449.618c-0.045,0.255-0.316,0.415,0.203,0.406c1.521-0.187,2.853,0.413,3.659-0.203c1.847,0.875,4.585-0.325,6.302,1.423
		c-1.056,1.343-2.354,0.322-3.456,0.203c-2.8-0.303-6.119,0.908-8.74,0.406c0.152,0.695-0.826,0.259-0.61,1.017
		c2.022-0.075,4.812-0.314,7.114,0.61c0.169,0.574-0.286,0.526-0.202,1.016c4.165-0.576,8.045-1.439,9.351-4.878
		C446.654,449.939,442.078,448.992,437.347,449.618z M430.842,455.514c4.299,0.112,6.269,0.365,9.757-0.814
		C437.585,453.953,432.983,454.322,430.842,455.514z M410.107,457.749c0.262-0.62,1.219-0.544,1.22-1.423c-0.609,0-1.22,0-1.829,0
		C409.759,457.192,409.678,457.137,410.107,457.749z M434.298,482.143c3.485-0.056,3.467,4.127,3.455,6.301
		c0.871-1.297,1.275-3.061,2.439-4.065c0.938-3.03-0.113-4.915,2.033-6.911c0.614-7.181,1.028-14.963-1.017-20.531
		c-7.599,1.682-18.884,0.867-27.239,0.203c2.087,1.303,3.28,3.496,4.473,5.692c0.944-0.199,1.228,0.263,1.829,0.406
		c0.802,1.973,0.805,5.33-0.203,7.725c0.442,0.37,0.639,0.987,0.813,1.626c-0.188,0.762-0.829,1.069-1.017,1.83
		c0.52,0.361,0.652,1.108,0.812,1.829c-1.472,1.576,0.734,4.442-0.812,6.302c1.394,5.982-1.658,10.885-1.423,16.465
		c0.702,0.314,1.42,0.613,2.032,1.017c-0.449,1.354-0.135,2.38,1.423,2.846c0.758-4.032,2.263-7.352,3.05-11.384
		c0.217-0.759-0.505-0.578-0.406-1.219c1.141-1.938,1.979-4.5,0.812-6.709c0.639-0.242,0.64-1.121,1.423-1.219
		c2.546,1.455,0.686,3.998,0.203,6.505c0.271,0.204,0.757,0.192,0.813,0.609c-0.532,0.417-0.341,1.557-0.813,2.032
		c4.118-2.162,5.357,2.846,5.285,5.692c-0.022,0.384-0.672,0.142-0.609,0.61c1.282,0.736-0.455,2.743,0,4.472
		c2.117-5.506,4.503-10.942,3.252-17.685c-2.122-0.434-3.294,1.307-5.285,1.625c-0.85-0.408-0.697-0.697-0.609-1.829
		C430.98,483.882,432.402,482.172,434.298,482.143z M372.502,482.549c0.564-1.062-0.768-2.109-0.203-3.252
		C371.241,479.409,371.42,482.644,372.502,482.549z M376.364,481.532c0.344-0.446,0.292-1.798-0.407-1.829
		C376.296,480.406,376.181,481.111,376.364,481.532z M404.416,643.95c2.549-0.268,4.723-0.271,6.708-0.609
		c1.619-0.276,3.256-1.593,3.862-1.627c0.107-0.006,0.219,0.53,0.609,0.406c0.449-0.142,0.807-0.632,1.221-0.813
		c1.151-0.505,2.241-0.81,3.252-1.423c0.533-1.153,0.898-2.479,1.423-2.642c-0.067-0.663,0.037-1.733,0.406-2.033
		c-0.011-6.367-0.015-13.83-0.406-20.125c0.386-1.676,0.486-4.781,0.609-7.318c0.097-1.975,0.077-3.91-0.203-5.283
		c0.863-5.168,0.591-11.355,0.61-17.279c0.021-6.475-0.868-14.637-0.203-21.954c0.095-1.042,0.824-2.888,0.813-3.456
		c-0.019-0.91-0.66-1.795,0.202-2.438c-0.364-1.059-0.582-1.575-1.016-2.847c1.597-3.251-0.188-8.242,1.219-13.01
		c-1.628,0.896-4.962,4.798-5.691,1.221c7.068-2.509,4.946-15.253-0.203-17.889c-0.396,0.59-0.671,0.527-0.406,1.423
		c-1.24,0.997-2.227,2.245-2.846,3.862c-3.67,4.229-8.645,4.93-15.449,5.691c-3.813-0.814-9.506-0.224-12.807-1.829
		c-1.048,4.909,1.146,9.017,0.61,11.993c1.485,2.312,4.518,2.049,6.708,2.846c0.373,0.572,0.023,1.827-0.61,2.033
		c-1.524-0.387-3.116-0.309-4.878-0.812c-0.421,0.941-0.521,2.182,0,3.049c-1.608,3.08,1.188,6.882-2.439,8.131
		c0.16,0.917-0.477,2.604,0.406,3.658c-1.274,0.984-0.248,2.857-0.406,4.27c-0.353,3.127-2.459,8.152-2.439,10.773
		c-3.005,5.328-1.538,12.947-2.439,18.701c0.208,0.199,0.411,0.402,0.609,0.609c-0.776,1.691-0.734,4.17,0.204,5.691
		c0.146,3.734,0.002,4.836,0.812,8.945c-0.675-0.593-0.411,2.94,0,1.219c-0.294,3.476-0.279,5.446-0.406,9.352
		c1.06-2.965,1.579-7.146,1.017-10.57c1.46-1.4,0.37-3.912,1.423-5.488c-0.248-0.023-0.481-0.061-0.407-0.407
		c0.93,0.007,0.011-0.714,0.204-1.22c0.722,0.316,0.122-0.689,0.609-0.609c1.463-12.67,2.794-23.227,5.488-35.98
		c2.57-5.908,3.751-12.656,9.961-15.245c0.281,0.327,0.575,0.644,0.812,1.017c-9.161,7.884-10.334,24.744-12.196,37.402
		c0.003,0.27,0.356,0.186,0.407,0.406c-1.187,2.136-0.521,4.694-0.813,6.912c-0.252,1.909-0.839,3.775-1.22,5.691
		c-0.416,2.092-0.56,4.11-0.813,6.302c-0.366,3.166-0.281,6.592-0.812,10.366c-0.137,0.974-1.25,2.31-0.407,3.457
		c-0.792,0.085-0.984,2.724-0.812,3.861c-1.215,1.971-2.929,3.44-4.269,5.285c-0.171,1.101-0.188,3.562-0.61,4.676
		c0.003,0.269,0.356,0.186,0.406,0.406c-0.709,0.6-0.15,1.448-0.406,2.236c2.477,2.952,7.938,2.923,12.604,3.862
		c0.701-0.638,1.477-0.107,2.235-0.203c3.642-0.461,4.669-3.63,4.473-7.522c-0.485-2.723-2.228-5.518-4.879-6.707
		c0.213-0.465,0.129-1.227,0.406-1.626c1.151,0.202,1.288-0.609,2.439-0.407c-0.29-3.456,1.985-7.251,1.627-11.18
		c0.76-0.862,1.099-2.303,0.812-3.659c0.644-0.096,1.124-4.121,1.22-6.099c0.368,0.078,0.267,0.273,0.406-0.203
		c0.185-0.627,1-3.848,1.017-4.065c0.019-0.241-0.443-0.636-0.406-0.813c0.046-0.221,0.526-0.318,0.609-0.609
		c0.572-2.004,0.984-5.161,1.626-7.318c0.686-2.303,0.451-4.924,0.813-7.521c0.375-2.689,1.357-5.332,1.626-8.13
		c0.538-5.61,1.293-11.059,0.61-16.466c0.064-0.477,0.321-0.764,0.203-1.423c-0.354-1.434-3.197-4.35-1.22-5.082
		c2.671-0.989,3.196,3.891,4.065,4.676c-0.329-1.451,0.106-2.187,0.406-3.456c-0.726-1.375-1.902-2.299-2.846-3.456
		c0.175-0.774,0.726-1.171,1.626-1.22c1.354,0.832,2.628,2.605,3.05,4.065c0.445,1.544-0.387,2.84-0.407,4.676
		c-0.005,0.524,0.541,1.151,0.61,1.626c0.061,0.42-0.435,0.966-0.406,1.424c0.043,0.715,0.396,1.454,0.406,2.438
		c0.031,3.008,0.152,4.532-0.61,6.708c0.41,2.239-1.034,5.461-1.423,7.928c0.382-0.55-0.241,0.43,0.204,0.609
		c-0.204,0.002-0.242-0.164-0.407-0.202c0.199,1.767-0.386,2.824-0.406,4.269c-0.51,0.168-0.643,0.713-1.017,1.016
		c-0.358,2.133-0.675,3.76-1.626,6.1c0.298,0.535-0.103,2.152-0.609,1.829c0.564,2.233-2.572,4.508-1.627,7.724
		c-1.206,1.754-1.28,3.668-1.626,5.896c-1.256,8.099-3.778,15.324-4.065,22.969c2.41,2.864,2.646,7.457,1.423,10.571
		C401.578,643.963,402.569,644.144,404.416,643.95z M406.652,530.928c1.466-0.589,2.871-1.221,4.269-0.406
		c1.267-1.512,3.337-3.301,3.659-5.082C412.495,527.828,409.295,529.1,406.652,530.928z M409.498,566.705
		c-0.177,0.809-0.177,1.021,0,1.829c0.123,0.485-0.255,1.476,0.203,1.626c0-0.678,0-1.354,0-2.032
		c0.248-0.349,0.121-2.163-0.406-1.626C409.419,566.514,409.535,566.532,409.498,566.705z M380.633,699.851
		c-0.229,0.021-0.316-0.295-0.406,0c0.365,2.251,0.311,8.041,1.829,10.164c-0.06-0.083,0.09-0.461,0.203-0.407
		c-0.247,1.617-0.114,3.098,0.813,3.862c-1.1,1.188,0.143,2.133-0.813,3.456c6.317,2.352,5.567,8.601,6.099,12.399
		c0.4-0.664,1.838-0.745,1.829-1.22c2.579-0.261,6.773,0.664,9.351,1.018c3.9,0.533,5.795-2.035,9.961-2.439
		c0.13,0.17,0.95,0.636,1.017,0.203c-0.201-0.599,0.244-1.054,0-2.236c-0.898-0.993-1.033-2.332-0.407-3.253
		c1.797-2.641,2.383-6.66,2.033-10.366c0.256,0.045,0.415,0.316,0.406-0.203c-0.732-0.751,0.141-0.682,0.203-1.423
		c0.016-0.179-0.405-0.623-0.406-0.813c-0.007-1.018,0.361-2.86,0.609-4.269c0.318-1.807,0.214-4.21,0.407-5.896
		c0.059-0.516,0.59-0.979,0.609-1.423c0.034-0.75-0.83-2.783,0-2.032c-0.024-0.586,0.111-1.331-0.203-1.627
		c0.589-1.147,0.594-2.276,0.813-3.658c1.167-7.349,1.545-15.957,1.829-24.8c-0.931-0.108-2.462-0.768-3.456-1.423
		c0.391-0.643-0.472-1.477-0.812-2.033c1.132-4.434-0.514-10.808,2.439-15.245c0.602-0.278,0.885,0.119,1.829,0
		c-0.278-1.363,1.605-0.563,1.22-2.034c-5.015,2.409-12.724,1.955-18.701,2.44c-0.224,0.928-1.416,0.888-1.627,1.829
		c4.153,2.228,0.492,6.828,2.033,10.57c-0.509-0.034-0.636,0.312-0.812,0.609c-0.439,3.424-3.152,6.335-6.505,7.521
		c-2.646-0.221-5.417,1.774-6.912-0.406c-0.829,0.489-1.004-0.345-2.032-0.203c-0.139,1.362,1.108,2.41,1.017,3.05
		c0.024-0.551-0.864,1.229-1.83,1.016c0.331,1.937,0.512,5.82,0.407,9.554c-0.204,0.001-0.242-0.164-0.407-0.203
		c0.294,2.654-0.704,3.842-0.609,6.302c0.521,0.495,1.574,0.458,1.626,1.423c-0.099,0.714-0.904,0.722-1.22,1.22
		c0.504,0.604,0.061,2.105-0.203,3.253c-1.783,0.903-1.048,3.089-1.829,4.878c0-0.112-0.165-0.23-0.204,0
		C380.784,697.301,379.81,699.072,380.633,699.851z M391.813,660.415c2.286,0.646,0.387,2.055-0.61,3.455
		c3.583-2.252,6.149-9.688,2.643-13.822c0-0.475,0-0.948,0-1.423c-4.748,0.664-8.713-0.354-13.01-1.626
		c-1.252,2.141-5.199,4.737-3.658,7.115c0.195-0.617,0.543-1.083,0.812-1.627c1.919-0.984,3.086,0.998,2.439,3.05
		c-0.837,0.924-2.771,0.752-3.456,1.829c0.243,1.221,0.977,2.694,1.423,4.269c0.855-0.177,0.681,0.675,1.017,1.017
		c1.664,0.585,3.057,0.882,4.879,1.626c0.976-0.742,2.883,1.438,3.456-0.203c-1.944-0.237-4.32-0.6-6.302-1.22
		c0.482-0.415-0.28-0.805,0.203-1.22c-1.356-0.756-3.669-2.218-1.626-3.659c2.261,1.092,4.77,3.764,7.725,2.847
		c-0.412,0.417,0.082,0.405,0.406,0.609C389.523,661.314,390.778,660.123,391.813,660.415z M415.189,649.438
		c-0.177,0.705,0.393,0.139,0.406,0c-0.103,1.022,0.135,2.352,0,3.658c-0.046,0.458-0.57,0.888-0.609,1.423
		c-0.03,0.424,0.388,0.875,0.407,1.424c0.067,1.963-0.883,3.699,0.202,4.879c-0.018,0.319-0.518,0.159-0.406,0.609
		c0.222,0.335,1.21,0.94,1.627,0.406c0.201-3.516,1.549-9.474,0.609-13.822C416.525,648.213,415.361,648.758,415.189,649.438z
		 M377.787,722.618c0.977,4.761,3.502,9.635,5.895,15.245c1.984-0.122,1.722-0.32,3.456-0.61c-0.068-1.574-0.393-2.323-0.61-4.065
		c-0.675-0.122-1.043-1.442-1.626-2.235c0.062-0.479,0.706-0.378,0.61-1.017c-0.256-4.727-0.124-10.33-5.082-11.18
		c-1.383,0.379-2.16,1.362-2.643,2.642C377.629,722.021,378.621,723.142,377.787,722.618z M407.669,730.546
		c0.06-0.415,0.55-0.399,0.609-0.813c-0.357,0.117-1.194-0.246-1.22,0.203C407.781,729.62,407.182,730.626,407.669,730.546z
		 M404.619,731.358c0.087-0.327-0.758-0.682-0.813-0.203c0.312,0.079,0.03,0.243-0.203,0c-0.031,0.239,0.035,0.577-0.203,0.609
		c-0.157,0.046-0.4,0.006-0.406,0.204c1.772-0.335,2.559-0.71,3.862-1.221c-0.608-1.011,0.582-0.133,0.203-0.609
		c-0.932-0.104-0.873,0.689-2.033,1.017c0.114-0.181,0.612-0.891,0.204-0.407C404.761,730.687,405.004,731.336,404.619,731.358z
		 M391.203,730.748c0.671,0.305-0.68,0.24-0.406,0.813c1.937-0.47,3.58,0.341,4.676-0.406c0.075,0.531,1.107,0.138,1.828,0
		c-1.389-0.263-3.295-0.132-5.081-0.609c-0.08,0.35,0.302,0.521,0,0.609C392.171,730.842,391.464,730.182,391.203,730.748z
		 M400.147,731.562c-0.24-0.369-1.06-0.16-1.423-0.406C398.495,731.855,400.932,731.608,400.147,731.562z M401.367,731.562
		c-0.313,0.614,1.052,0.535,1.016,0.203c-0.112,0.001-0.23-0.164,0-0.203c0.158-0.046,0.401-0.006,0.407-0.203
		C402.085,731.195,402.009,731.661,401.367,731.562z M410.921,731.765c-1.253-0.284-1.332,0.92-2.236,0.406
		c-0.083,0.695-0.549,0.259-0.203,1.017c-1.413,0.012-2.823,0.485-4.676,1.22c-3.116-0.417-5.82-1.102-8.943-0.812
		c-0.036,0.714,0.687,0.668,0.813,1.22c-0.133,1.035-0.767,0.305-0.407,1.219c-0.555-0.018-0.409,0.34-0.813,0
		c-0.121,0.362,0.597,0.845,0,1.018c-0.031-0.24,0.035-0.577-0.203-0.61c-0.381,0.388,0.121,0.367,0,1.017
		c-0.771-0.033-1.288-0.008-0.609,0.406c-0.38,0.398-0.744,0.062-1.22,0c-0.265,0.779,0.052,1.232-0.813,1.626
		c0.492,0.053,0.586,1.291,0.813,0.407c0.051,0.627,0.731,0.623,1.017,1.016c0.529,1.386-0.096,2.353,0.406,3.253
		c-0.738,0.447-2.745,1.677-3.659,0.203c-0.022,0.384-0.672,0.141-0.609,0.61c0.835,1.032-2.704,3.182-3.05,3.049
		c-0.061,0.399,0.274,0.402,0.407,0.609c-0.996-0.49-0.299,0.271-0.407,0.406c-0.863,1.082-2.996,0.322-3.658,2.236
		c-0.181-0.557-0.902,0.397-0.407-0.406c-0.94-0.153-0.282,0.776-0.609,0.813c-0.099-0.362-0.217,0.088-0.406,0.202
		c-1.018-0.518-1.579,0.469-1.83,1.018c-0.74-0.394-0.937,0.545-1.829,0c-0.269,0.508,0.804,0.636,0.203,0.812
		c-0.177-0.298-0.304-0.645-0.812-0.609c-0.652,1.226-3.075,0.202-2.847,1.625c-0.457-0.281-1.109-0.172-0.406-0.609
		c-1.147,0.32-1.125,0.717-1.829,0.203c-0.045,0.158-0.171,0.236-0.407,0.204c-0.031,0.505,0.319,0.629,0.407,1.016
		c-0.429-0.369-1.788,0.883-1.627,0c-0.431,0.884-1.488-0.525-1.423,0.407c-0.911-0.514-3.535,0.099-3.659-1.423
		c-1.188-0.296-1.253,0.75-1.829,0c0.132,1.02-0.56-0.056-1.017,0.813c0.35,0.08,0.521-0.302,0.61,0
		c-0.185,0.654-0.379,2.064-1.423,1.219c-0.023,0.858-0.693,1.068-1.22,1.423c0.425,0.185,0.619,0.6,0.609,1.22
		c1.045-0.323,3.156,0.255,3.862-0.609c-0.002,0.205-0.356,0.255-0.406,0c0.323-0.897,1.259-1.181,2.439-1.22
		c0.074,0.729,0.545,0.744,0.203,1.423c1.799-0.19,1.87,0.26,3.659-0.203c-0.921-0.105-0.826-0.36-1.626-1.22
		c0.421-0.527,0.867-1.029,2.032-0.813c-0.052,0.729,0.61,0.745,0.609,1.423c-0.238,0.032-0.577-0.034-0.609,0.204
		c0.423,0.113,0.431,0.316,0.203,0.609c1.331-0.083,1.383-0.25,2.439,0c-0.072-0.988,0.658-0.064,1.017-1.017
		c-0.725,0.046-1.063-0.292-1.017-1.016c0.575-0.822,2.667-1.075,3.253-0.204c-0.076,1.63-1.634,0.807-2.033,1.829
		c0.648-0.173,0.771,0.178,1.016,0.407c0.582-0.66,1.819-0.216,2.033,0.609c-1.77-0.276-2.378,0.817-3.456,0.813
		c1.241-0.267-0.003-0.561-0.203,0.204c1.13-0.146,3.858,0.415,4.676,0c0.779-0.397-0.771-0.567,0.203-0.611
		c0.271-0.012,1.987,1.527,2.236,0c2.085,0.251,6.364,0.367,8.944-0.609c0.018,0.07-0.188,0.409-0.204,0.407
		c2.185,0.29,4.104-0.733,6.099,0c0.381-0.887,1.73-0.454,2.643-0.407c0.39-0.56,2.414-0.159,3.456-1.016
		c0.396-2.205,4.291-0.22,4.675-1.627c1.743,0.753,2.777-0.711,4.473-0.203c-0.011-0.35,0.156-0.521,0.406-0.609
		c-0.107-0.894-0.285-0.89,0.203-1.018c-1.503-2.869,0.419-5.274,0.406-8.13c0.261-0.012,0.282-0.261,0.61-0.203
		c1.396-5.088,0.37-9.978-1.83-14.637C410.983,731.71,410.554,732.579,410.921,731.765z M386.527,741.115
		c0.7-1.606-2.669-0.849-3.049-1.016c0.091,0.99-0.111,2.15-0.203,3.049c1.864,0.089,2.261,0.033,4.269,0
		c0.172-0.488,0.131-0.538,0.204-1.423C387.24,741.623,386.912,741.341,386.527,741.115z M380.836,745.994
		c-0.045-0.157-0.006-0.401-0.203-0.406c-0.034,1.486,2.049,0.626,2.643-0.406C381.801,744.49,380.702,744.029,380.836,745.994z
		 M378.396,748.637c-0.678-0.378-0.855,0.73-0.406,0.813c0.152-0.498,0.606-0.044,0.203,0.202c0.71-0.035,1.023-0.467,1.22-1.016
		C378.838,747.761,377.973,749.735,378.396,748.637z M358.272,755.955c-0.359,0.625-0.86,0.338-1.22,0.609
		c0.745,0.535,2.18,1.027,1.423,2.439c0.236,0.17,0.545,0.269,1.017,0.203c0.181-0.857-0.207-1.147-0.61-1.423
		c0.022-0.505,0.381-0.629,0-1.016c0.449-0.433,1.655-0.107,1.627-1.017c-0.72-0.179-0.5-0.025-1.22-0.204
		c-0.378,0.426-0.526,0.765-0.61,1.017C358.581,756.325,358.462,756.104,358.272,755.955z M355.021,756.769
		c-0.448-0.087-1.121,0.608-0.61,0.812c0.003-0.205,0.356-0.256,0.406,0c-0.531,0.214-0.664,0.826-0.609,1.626
		c0.924-0.461,2.668,0.438,2.439-0.406c-0.012,0.124-0.031,0.241-0.203,0.203c-0.001-0.204,0.164-0.242,0.203-0.406
		c-0.271,0-0.542,0-0.813,0C355.956,757.635,354.534,757.452,355.021,756.769z M349.328,758.801
		c0.248,0.022,0.481,0.061,0.406,0.406c0.486-0.124,1.476,0.255,1.627-0.203c-0.601-0.177,0.472-0.304,0.203-0.812
		c-0.421,0.121-1.335-0.252-1.423,0.202c0.271,0.499,0.613-0.366,0.813,0.204C350.479,759.003,349.81,758.219,349.328,758.801z
		 M371.078,760.021c0.294-0.228,0.496-0.22,0.61,0.203c-0.204-0.001-0.242,0.165-0.406,0.204c-0.572-0.174-0.834-0.657-1.627-0.611
		c0.111,0.297-0.236,1.052,0.204,1.017c0.217-1.179,0.623-0.056,0.813,0c0.89,0.266,2.155-0.438,3.455-0.203
		c0-0.136,0-0.271,0-0.406c-0.659-0.44-0.38,0.024-0.609,0.204c-0.339-0.405,0.018-0.26,0-0.813c-0.555-0.019-0.409,0.338-0.813,0
		c-0.032,0.239,0.035,0.577-0.203,0.609C372.381,759.578,370.617,759.591,371.078,760.021z M363.964,760.63
		c-0.459-0.113,0.246-0.317-0.203-0.609c-0.629,0.327-0.789,0.176-1.22,0.407c0.964,0.861,2.444-0.139,3.456,0
		c-0.399,0.061-0.403-0.275-0.61-0.407C365.149,760.461,364.005,759.993,363.964,760.63z M410.312,762.053
		c-0.766,0.088-0.926-0.429-1.22-0.812c0.315,0.016,0.141-0.592,0-0.203C408.218,762.235,410.06,763.425,410.312,762.053z
		 M406.652,763.273c-0.668-0.42,0.667-1.614,0-2.033C406.279,761.562,405.97,763.727,406.652,763.273z M402.18,762.053
		c0.528,0.568-0.406,1.448,0,0.61c-0.718,0.07-0.525,0.533-0.406,1.017c0.54,0.001,1.161-0.077,1.423,0.203
		c0.35-0.472,0.603-2.098,0.406-2.439C403.073,761.927,403.129,762.389,402.18,762.053z M393.236,764.492
		c0.438-0.558,0.933,0.203,1.423-0.203c-0.45-1.084,0.514-1.186,0.406-2.439c-0.757,0.017-0.656,0.305-1.017-0.203
		c0.029,0.897-0.497-0.019-1.017,0.203c0.41,1.164-1.025,1.537-0.406,2.236C393.416,763.317,392.849,764.015,393.236,764.492z
		 M389.78,763.883c0.045-0.158,0.005-0.4,0.203-0.407c-0.015,0.285,0.045,0.778,0.203,0.407c0.009-0.873,0.517-1.245,0.61-2.033
		c-1.022,0.124-0.148,1.361-1.22,0.406c-0.147,0.622,0.351,0.599,0.203,1.22C389.575,763.479,389.524,763.833,389.78,763.883z
		 M397.911,762.053c-0.349,0.213-0.004,1.438-0.61,0.813c0.01,0.279-0.095,0.446-0.203,0.609c0.351,0.081,0.521-0.302,0.61,0
		c0.041,0.657-0.519-0.085-0.61,0.61c1.12,0.28,2.019-0.426,2.439-0.203c-0.111-0.811-0.111-0.612,0-1.423
		c-0.993-0.212-0.511-0.032-0.609-0.61C398.962,762.291,398.207,761.941,397.911,762.053z M386.121,762.866
		c0.891-0.148-0.164,0.404,0.406,0.407c0.013-0.125,0.031-0.241,0.204-0.204c-0.139,0.636-0.619,0.342-0.813,0
		c0.046,0.385-0.229,0.449-0.203,0.813c1.032-0.253,0.238-0.104,0.203,0.609c0.705,0.028,0.325-1.029,1.017-1.017
		c0.147-0.554-0.404-0.409-0.407-0.812c0.204,0,0.242-0.165,0.407-0.203c0.045,0.157,0.005,0.4,0.203,0.406
		c0.012-0.124,0.03-0.241,0.203-0.203c0-0.136,0-0.271,0-0.407C386.654,762.179,386.474,762.608,386.121,762.866z M382.259,764.289
		c0.158,0.045,0.401,0.005,0.407,0.203c-0.159,0.045-0.237,0.17-0.204,0.407c1.217-0.556,0.542-1.708,1.017-2.236
		c0.012,0.124,0.03,0.24,0.203,0.203c-0.346-0.889-1.137,0.071-1.626,0c0.118,0.008,0.399,1.149-0.203,0.609
		C381.733,764.509,382.813,763.521,382.259,764.289z M378.193,765.102c0.475-0.303,0.876,0.069,1.017-0.202
		c-0.67-0.619,1.225-1.47,0.609-2.033c0.09,0.407-0.926-0.79-1.219,0c0.289,0.049,0.342,0.335,0.609,0.407
		c0.045-0.158,0.005-0.402,0.203-0.407c0.011,0.35-0.156,0.521-0.406,0.609c-0.177-0.297-0.305-0.645-0.813-0.609
		c0.006,0.906,0.373,1.916-0.406,1.017C377.733,764.478,378.247,764.507,378.193,765.102z M351.158,763.68
		c-0.037,0.443,0.166,0.646,0.609,0.609c0.324-0.483,0.5-0.97,0-1.423c-0.053,0.315-0.446,0.141-0.609,0
		C351.106,763.387,351.961,764.144,351.158,763.68z M354.613,763.476c-0.072,0.885-0.03,0.935-0.203,1.424
		c0.653-0.179,0.278,0.67,0.813,0.609c0.305-0.698-0.137-1.604,0.406-2.439c-0.54-0.002-1.161,0.077-1.423-0.203
		C353.944,763.485,354.266,764.533,354.613,763.476z M360.103,763.273c1.004,0.562-0.11,2.379,1.626,2.438
		c0.149-1.305,0.398-1.43,0.406-2.643C361.456,763.936,360.877,762.299,360.103,763.273z M364.98,764.492
		c-0.134-0.743,0.44-0.779,0.406-1.423c-0.384,0.046-0.448-0.229-0.812-0.203c0.73,1.246-1.132,1.798,0,2.643
		C364.479,764.58,364.527,764.475,364.98,764.492z M367.42,765.712c0.543-0.415,0.596-0.37,0.406-1.22
		c0.29,0.079,0.343,0.244,0.61,0c-0.66-0.74,1.265-1.157,0.203-1.626c-0.174,1.002-0.536-0.722-1.22,0.407
		c0.286,0.053,0.231,0.445,0.406,0.609c-0.552,0.058-0.476,0.744-1.017,0.813c0.686,0.014,0.036,0.464,0.61,0.812
		C367.307,765.508,367.188,765.674,367.42,765.712z M375.145,765.102c0.186-1.006,0.383-1.213,0.406-2.032
		c-0.361,0.122-0.844-0.596-1.017,0c0.24,0.099,0.461,0.218,0.61,0.406c-0.296,0.112-1.051-0.237-1.017,0.204
		C373.835,764.939,374.592,763.592,375.145,765.102z M358.069,763.069c-0.536-0.061-0.667,0.282-0.61,0.813
		c0.992,0.263-0.358,1.459,0.61,1.626c0.191-0.495,0.537-1.484,0.812-2.439c-0.964-0.176-0.562,0.496-0.812,0.61
		C357.99,763.39,357.825,763.337,358.069,763.069z M370.469,765.306c0.626-0.143,0.391-0.143,1.017,0
		c0.063-0.952,0.706-1.327,0.813-2.236c-0.742-0.181-1.083,0.359-1.423,0c-0.261,0.867,0.227,1.217-0.203,1.83
		c0-0.113-0.165-0.23-0.204,0C370.715,764.942,370.595,765.125,370.469,765.306z"/>
	<g>
		<path fill-rule="evenodd" clip-rule="evenodd" fill="#FFFFFF" d="M72.772,269.731c-0.202,1.054-1.228,0.69-2.033,0.61
			c-2.119-0.21-5.306-1.478-7.114-1.83c-0.179-0.653,0.669-0.278,0.609-0.813C67.488,268.005,70.639,267.961,72.772,269.731z"/>
		<path fill-rule="evenodd" clip-rule="evenodd" fill="#FFFFFF" d="M77.041,268.714c-2.858,1.779-2.612,5.694,1.22,6.505
			C73.092,278.693,71.913,266.96,77.041,268.714z"/>
		<path fill-rule="evenodd" clip-rule="evenodd" fill="#FFFFFF" d="M69.724,273.39c-1.136,0.573-4.468,2.091-4.879-0.203
			C66.568,272.842,69.77,270.951,69.724,273.39z"/>
		<path fill-rule="evenodd" clip-rule="evenodd" fill="#FFFFFF" d="M65.861,279.895c-0.913-0.033-1.597,0.165-2.033,0.609
			c-0.611-0.337-1.27-0.627-1.016-1.83c2.64-0.815,4.494-2.417,6.098-4.269C72.789,275.869,66.429,277.835,65.861,279.895z"/>
		<path fill-rule="evenodd" clip-rule="evenodd" fill="#FFFFFF" d="M46.55,285.586c0.4,0.425,0.155,1.351,0,1.83
			c-0.639,0.314-1.134,0.13-1.626-0.204c-2.898,2.41,0.187,5.571,3.252,5.489c-1.649,3.341-6.601,0.215-6.708-2.439
			c0.208-1.106,0.156-2.084,0.204-3.049C42.942,286.025,44.096,284.619,46.55,285.586z"/>
		<path fill-rule="evenodd" clip-rule="evenodd" fill="#FFFFFF" d="M155.303,448.614c-0.656-1.606-3.142-1.186-3.863-2.236
			c-0.128-2.4,1.513-1.774,2.846-2.643c2.93,1.746,5.485,3.865,7.115,6.911c0.078,0.755-0.824,0.531-0.61,1.423
			c-0.865,0.12-1.344-0.146-2.032-0.203C158.597,450.572,157.268,448.088,155.303,448.614z"/>
		<path fill-rule="evenodd" clip-rule="evenodd" fill="#FFFFFF" d="M169.735,482.968c0.032-0.238,0.371-0.172,0.609-0.203
			c0.017,0.321-0.098,0.774,0.204,0.812C170.032,484.4,169.972,483.092,169.735,482.968z"/>
		<path fill-rule="evenodd" clip-rule="evenodd" fill="#FFFFFF" d="M108.549,512.036c-0.945,1.732-3.793,1.697-5.691,1.829
			c-2.263,0.157-4.877-0.019-6.911-0.609c-0.979-0.285-1.793-0.941-2.643-1.22c-4.645-1.521-10.584-2.791-16.262-4.27
			c-1.125-0.293-2.266-0.205-3.456-0.406c-0.898-0.151-1.779-0.647-2.643-0.813c-2.091-0.399-4.238-0.165-6.301-0.203
			c-2.727-0.049-5.553-0.388-8.334-0.203c-1.358,0.091-2.8,1.02-4.065,0.203c0-0.474,0-0.948,0-1.423
			c1.525-0.621,3.698-0.804,5.488-0.812c5.756-0.03,12.329,0.506,16.669,1.22c5.167,0.849,10.624,2.775,16.465,4.065
			c3.674,0.811,6.977,2.604,10.164,2.846C103.664,512.438,106.367,511.619,108.549,512.036z"/>
		<path fill-rule="evenodd" clip-rule="evenodd" fill="#FFFFFF" d="M108.956,515.085c0.369-0.528-0.088-0.612,0.203-1.22
			c2.257-0.875,5.513-1.555,5.082-4.472c1.018-1.759,3.102-0.754,3.252,0.609c0.067,0.612-0.522,0.606-0.813,1.423
			c-0.401,1.126,0.098,0.604-0.813,1.22c-0.662,0.447-1.916,2.02-2.643,2.236C112.118,515.212,109.538,514.97,108.956,515.085z"/>
		<path fill-rule="evenodd" clip-rule="evenodd" fill="#FFFFFF" d="M202.056,537.039c2.665-0.178,7.007-0.828,9.148,0.609
			c0.773,1.428-2.401,2.579-2.846,1.017c-0.52,0.782-2.088,0.653-2.643,0c-0.881,1.205-3.203-0.262-4.269,0.813
			c-0.801,0.056-0.622-0.869-1.423-0.813c-6.284-0.588-13.603-0.725-20.734-1.017c-2.365-0.097-4.437-0.956-6.099,0.203
			c-4.271-1.59-10.675-0.866-15.855-1.016c-1.485-0.043-2.988-0.388-4.472-0.407c-0.322,0.104-1.379,0.492-1.017,0.61
			c-1.525,0.37-2.715-1.349-3.862-2.033c0.133-1.396,0.016-2.877-1.017-3.862c0.83-2.179,0.137-4.711,0.407-7.114
			c0.214-1.904,1.206-3.674,1.423-5.488c0.281-2.342-0.232-4.849,0-7.521c0.927-0.531,1.175-2.477,0.813-3.659
			c1.37-4.297,1.417-9.791,1.626-14.433c0.311-6.921,0.444-13.86,0.203-21.547c-0.098-3.146,0.693-8.515-0.813-11.384
			c0.199-0.547,0.448-1.042,0.61-1.626c-2.801-3.13-8.653-3.707-7.522-10.164c-2.506,0.192-4.615,0.728-7.317,0
			c-5.363-3.987-11.753-6.948-18.702-9.351c0.722,5.075,1.016,9.255,2.236,14.229c0.185,0.998-0.853,0.774-0.813,1.626
			c0.113,5.558,0.486,11.717,1.83,17.481c-0.041,5.573,1.349,10.384,1.017,15.652c-0.246,3.906-0.527,7.562-0.407,11.587
			c0.212,7.08,0.925,15.503-3.862,19.108c-4.156,1.306-7.953,1.939-11.79,1.017c-0.583-0.141-1.047-0.648-1.626-0.813
			c-6.748-1.922-14.533-2.516-21.954-4.269c-0.691,3.837,1.358,9.608,7.521,9.554c2.775-0.305,6.432-0.907,9.757-0.61
			c1.604,0.144,3.185,0.894,4.879,1.017c1.681,0.123,4.472,0.21,6.302,1.017c1.942,0.855,5.427,2.482,7.114,3.659
			c0.861,0.6,1.595,0.846,2.44,1.829c2.264,2.638,1.959,6.846-0.61,9.351c-9.807,2.701-21.907,0.542-32.321-1.626
			c-3.045-0.631-7.656-0.438-11.586-1.626c-1.708-0.518-3.266-1.555-4.879-2.236c-2.804-1.186-6.289-2.324-7.317-4.472
			c-0.662-1.38-0.585-4.435,0.203-5.692c-0.222-3.934,1.116-9.615-2.846-11.383c-0.168-0.575,0.286-0.527,0.203-1.017
			c-6.127-0.648-11.86-1.691-15.652-4.675c-2.289-5.073-1.108-10.164,0.204-15.043c0.534-1.987,0.91-4.139,1.423-6.099
			c1.981-7.564,4.912-14.623,6.505-23.174c1.871-10.037,1.758-20.733,2.643-30.694c0.152-1.716,0.704-4.928,0.813-7.114
			c0.038-0.765-0.383-1.376-0.407-2.236c-0.127-4.738,0.56-10.173,0.61-14.433c0.036-3.044,0.395-6.885,0-9.757
			c-0.06-0.432-0.154-0.73-0.61-1.017c1.045-1.405,0.193-3.238,0.204-4.879c0.035-5.343,0.154-10.987-0.407-17.278
			c-0.771-8.644-2.248-18.079-3.456-25.613c-0.941-5.874,2.208-10.03,5.692-13.009c0-0.475,0-0.949,0-1.423
			c-0.032-0.569,0.575-0.663,0.813-0.406c-0.448-2.405-2.565-3.435-3.862-5.082c-0.876-1.113-0.734-2.759-2.033-3.659
			c0.435-2.66-2.646-4.017-1.626-6.708c-1.571-0.722-1.55-2.62-2.236-4.269c-0.558-1.342-2.274-2.581-1.22-5.286
			c-1.917-1.374-1.253-4.542-3.252-5.488c0.31-0.934-0.132-1.79,0.203-3.049c-4.451-2.001-10.395-6.06-11.18-11.993
			c-0.583-4.405,2.122-10.84,5.285-12.604c1.062-0.591,2.859-0.859,4.066-0.61c-1.202-10.174-3.078-22.129-1.626-32.117
			c-2.088,0.374-5.52,0.252-8.741,0.406c-3.454,0.166-9.019,1.727-9.96-2.236c1.536-1.31,4.615-1.077,6.708-1.83
			c0.824-0.33-0.428-1.032,0.406-1.626c5.858,1.133,7.542-2.491,8.131-7.725c1.395-12.401,7.695-25.043,10.367-36.183
			c-1.184-3.008-0.043-7.751-2.236-9.757c-2.462,1.747-5.589,3.209-7.927,5.285c-0.613,0.543-0.839,1.328-1.423,1.83
			c-2.656,2.279-6.247,3.598-8.131,6.708c-3.484,1.398-6.31,3.961-9.351,5.895c-3.025,1.923-5.854,4.223-8.131,6.912
			c-3.575,1.096-4.849,8.269-9.351,7.114c-0.38-0.098-2.435-2.562-2.439-3.455c-0.019-3.707,5.01-4.776,5.691-8.741
			c2.322-3.239,5.74-5.312,8.334-8.334c0.483-0.563,0.708-1.473,1.219-2.033c1.549-1.696,3.955-2.712,5.488-4.472
			c2.572-2.952,4.053-6.649,7.318-8.944c2.6-3.657,5.22-8.473,8.334-12.806c4.677-6.508,9.952-11.934,18.499-11.993
			c0.69,0.529,1.631,0.808,2.643,1.016c0.718,0.434,1.138,1.166,2.236,1.22c0.359,1.193,1.676,1.37,2.439,2.236
			c2.749,3.121,3.838,7.927,7.115,10.57c0.263,2.498,1.236,4.973,2.033,7.318c0.792,2.329,1.776,4.666,2.643,6.911
			c5.221,13.532,11.135,27.157,16.465,40.858c-0.131,1.825,0.816,2.572,0.813,4.269c5.5,1.138,10.959-0.5,15.246,1.22
			c-1.124,3.648-7.11,4.979-11.384,5.488c2.027,2.9,4.034,6.756,4.065,9.96c1.511-0.707,2.909-2.443,4.878-2.033
			c0.087,2.094-0.077,4.069-0.406,6.099c-1.041,0.653-2.346,1.042-2.846,2.236c1.906,1.797,3.617,5.856,2.439,8.334
			c3.13,1.989,2.13,8.148-0.61,9.757c0.919,1.649,0.255,3.653,1.83,4.675c0.339,3.584,1.038,7.264,3.252,9.555
			c5.412,0.673,8.397,8.251,4.472,12.4c-1.332,0.72-3.079,0.752-3.456,2.032c-0.554,1.885,1.675,4.109,2.236,6.301
			c0.283,1.106-0.214,2.093,0.204,2.643c-0.028,0.786-0.794,0.833-1.626,0.813c0.425,0.449,0.159,1.354-0.203,1.626
			c1.447,1.347,0.3,4.322-1.423,4.879c0.566,1.5,0.89,2.324,1.016,4.472c0.955,2.23,2.537,3.832,3.049,6.505
			c2.619,1.624,2.151,4.417,2.439,7.115c0.074,0.687,0.528,1.344,0.61,2.033c0.258,2.153-0.815,4.484-0.61,6.708
			c0.106,1.152,1.009,2.107,1.22,3.049c0.698,3.112-0.453,7.239-0.61,10.977c-0.044,1.045,0.246,2.197,0.204,3.252
			c-0.029,0.697-0.624,1.555-0.61,2.236c0.018,0.846,0.81,2.24,1.017,3.659c0.16,1.099-0.036,2.432,0.204,3.456
			c0.508,2.17,1.486,6.14,2.846,8.131c-0.163,2.008,0.217,4.694,0.406,6.504c0.109,0.99-0.81,0.952-1.016,1.626
			c0.737,4.805,0.383,9.725-1.423,14.026c-0.895,0.122-1.356,0.676-2.439,0.61c1.375,3.775,4.063,6.236,6.504,8.944
			c4.704,2.072,9.292,5.343,13.417,7.318c7.097,5.913,17.188,8.831,20.327,18.702c5.561-0.562,9.703,2.946,14.026,4.878
			c2.998,2.794,7.455,9.768,2.236,13.213c0.175,0.988-0.582,1.045-0.407,2.033c-2.547,2.221-6.432,4.104-11.18,3.455
			c-0.693,3.603-0.379,7.907-0.61,12.4c-0.171,3.334-0.972,6.609-1.219,9.961c-0.125,1.685,0.271,3.409,0.203,5.081
			c-0.154,3.779-1.022,7.533-1.219,11.181c-0.293,5.419,0.114,8.807-0.61,14.636c-0.646,5.201-0.786,10.004-0.61,15.246
			c14.522,1.829,30.384,1.459,44.111,4.065c-0.761,1.112-2.816-0.246-3.862,0.406c0.027,0.501,0.031,0.979-0.203,1.22
			c0.984,0.072,2.709-1.016,4.065-0.813c0.504,0.831-0.109,1.07-0.61,1.424c1.121,0.424,3.238-1.562,4.269-0.61
			C203.021,536.784,202.64,537.013,202.056,537.039z M88.831,231.921c-1.249-4.904-2.906-9.58-5.082-14.026
			c-2.877-5.881-5.384-12.705-7.521-18.701c-1.149-3.226-2.628-6.48-4.269-9.554c0.011-1.568-1.183-1.934-1.016-3.659
			c-1.33-2.29-2.296-6.247-3.252-8.741c-0.906-0.751-1.396-2.004-1.423-2.439c-0.101-1.643-1.314-2.987-2.439-4.878
			c-1.446-2.431-3.147-4.748-4.878-6.301c-4.02-3.606-11-2.3-14.636,0.813c-3.55,3.391-6.234,7.63-8.741,11.79
			c-3.079,5.109-7.7,9.866-11.18,14.433c-2.636,3.459-5.803,4.959-8.334,8.131c-1.97,2.469-4.265,4.132-6.504,6.302
			c-3.217,3.115-4.427,8.04-7.115,11.586c0.606,0.004,0.26,0.959,0.61,1.22c2.34-0.19,3.131-1.972,4.269-3.456
			c5.877-7.666,15.573-11.354,22.157-18.295c3.103-0.852,4.364-4.367,6.708-6.708c1.3-1.298,3.081-1.928,4.472-3.049
			c2.048-1.65,3.712-4.62,6.912-3.862c4.762,1.127,6.561,7.39,8.334,12.197c-3.438,2.018-3.047-4.35-5.286-5.488
			c0.426,1.618,0.275,1.431-0.407,2.236c0.189,0.963,0.525,1.779,0.813,2.643c-3.445,14.154-10.051,26.679-10.367,41.671
			c-1.22-0.208-1.047,1.632-1.22,2.846c-2.09,0.485-2.656,2.494-5.082,2.643c0.173,0.648-0.177,0.771-0.407,1.016
			c-1.466,0.499-3.938-0.008-4.879,1.017c20.757-1.213,38.355-2.586,61.39-4.878c0.621-0.26,0.864-0.897,1.626-1.017
			c3.652,0.43,6.835-1.162,10.367-2.439c-1.056,0.066-2.255,0.038-3.252,0.61c-2.71-2.365-7.815,0.6-10.57-2.236
			C88.908,233.083,88.829,232.462,88.831,231.921z M91.677,240.053c-14.661,2.17-32.505,2.342-47.363,4.472
			c-1.721,9.904,0.444,23.466,2.236,33.541c-0.252,0.425-0.591,0.764-1.017,1.016c-2.952-0.895-5.094-0.145-6.708,1.626
			c-0.569,2.655-2.334,4.425-2.44,7.114c-0.238,6.079,8.594,14.566,14.229,10.367c0.06,0.415,0.55,0.399,0.61,0.813
			c-0.063,0.615-0.629,0.726-0.407,1.626c1.075,0.579,2.723,0.582,3.456-0.407c2.792,1.138,5.775,2.085,7.927,3.862
			c0.641,0.098,0.46-0.624,1.22-0.406c3.483,1.316,6.382-0.792,9.351,0c1.006-1.566,3.139,0.08,4.472-1.22
			c2.371,1.125,4.325-0.39,7.521,0.61c3.136-1.98,6.603-0.702,10.164-2.236c0.678,0,0.694,0.661,1.423,0.61
			c1.108-0.453,3.238-1.969,4.269-0.61c0.251-1.188,0.995-1.193,2.236-1.016c4.268,3.152,9.445-2.129,8.131-6.302
			c-0.859-2.727-6.361-4.121-7.521-1.626c-0.448-0.433-1.183-0.579-1.22-1.423c0.625-0.663,1.655-0.921,2.44-1.423
			c-1.54-2.903-2.477-7.462-3.456-10.57c-1.021,0.356-2.158,0.906-3.049,0.813c-0.93-2.505,2.585-1.733,2.846-3.659
			c-0.87-0.94-1.811,0.572-2.236-0.813c-6.106,2.359-13.32-0.311-19.312-1.83c-0.272,0.473-1.177,0.314-1.626,0.61
			c-0.384-0.429-1.17-0.456-1.423-1.017c0.729-1.642,1.977-2.766,4.066-3.049c-0.237-0.034-0.221-0.321-0.203-0.61
			c1.951-1.234,3.091-3.277,4.878-4.675c4.855-2.526,10.258-3.897,16.059-1.626c0.018-2.457-1.164-3.714-2.033-5.285
			c-1.821-0.127-2.508,0.88-3.456,1.626c-1.586-0.718-2.977,0.833-4.472-0.61c-1.373,1.476-3.753-0.263-5.286,1.219
			c-0.584-0.161-1.079-0.412-1.626-0.609c-0.53,0.283-0.474,1.152-1.423,1.016c-1.588-0.376-1.917-2.014-2.236-3.659
			c1.083-0.882,1.445-2.485,2.033-3.862c0.204,0,0.242-0.165,0.407-0.203c0.984-0.104,0.83,0.931,2.033,0.609
			c0.485-0.392,0.507-1.401,1.626-1.626c0.646,0.031,0.895,0.461,1.626,0.406c0.761-0.188,0.512-1.386,1.626-1.219
			c0.994,0.225,0.986,1.453,2.236,1.423c0.76-0.527,0.491-2.083,1.83-2.033c0.392,0.285,1.244,0.111,1.016,1.016
			c0.762-0.322,1.158-1.01,1.626-1.626C96.061,245.155,94.218,242.255,91.677,240.053z M101.028,252.859
			c0.268-0.462,0.931-0.788,0.203-1.22C100.89,251.869,100.227,252.661,101.028,252.859z M92.49,256.518
			c0.653,0.169,1.902-0.616,2.439-1.22c-0.674-0.753,0.498-1.391,0.407-2.236c-0.622,0.147-0.598-0.351-1.219-0.204
			C93.971,254.37,92.59,255.628,92.49,256.518z M87.612,256.518c0.338,0,0.677,0,1.016,0c-0.265-1.213,0.641-1.256,0.61-2.236
			c-0.045-0.158-0.17-0.236-0.407-0.203C88.449,254.916,87.817,255.504,87.612,256.518z M90.254,256.314
			c0.711,0.034,1.301-0.054,1.626-0.406c-0.835-0.238-0.327-1.506-0.609-1.83C90.858,254.75,90.403,255.38,90.254,256.314z
			 M84.969,257.128c0.406,0,0.812,0,1.219,0c-0.278-0.876,0.179-1.564-0.407-1.83C85.66,256.057,85.018,256.295,84.969,257.128z
			 M85.172,267.088c1.258-0.496,3.883-1.59,3.456-2.439C87.664,265.65,85.843,265.794,85.172,267.088z M93.913,272.374
			c-0.517-1.162-0.456-3.879,0.407-5.285C91.916,266.611,91.737,273.171,93.913,272.374z M84.156,270.341
			c0.707,2.208,4.163,2.287,6.098,2.643c-0.755-1.331-2.159-3.302-1.219-5.082c-0.045-0.158-0.17-0.236-0.407-0.203
			C87.385,268.827,85.642,269.455,84.156,270.341z M101.435,271.357c1.049,0.033,1.224-0.809,1.423-1.626c-0.204,0-0.407,0-0.61,0
			C102.281,270.578,101.643,270.752,101.435,271.357z M50.412,309.167c-0.84,3.559,1.83,4.437,1.626,7.928
			c0.491,0.932,2.095,0.751,2.439,1.83c-0.364,0.584-0.389,1.508-0.61,2.236c2.192,2.188,1.929,5.631,3.659,8.131
			c2.473,0.712,2.949,3.42,4.065,5.489c0.519,0.349,0.711-0.233,1.016,0.203c1.24,5.129,5.469,7.271,8.334,10.774
			c0.678,0,1.355,0,2.033,0c2.24,5.891,6.572,9.689,8.741,15.652c0.877-0.412,2.217-0.233,2.236,0.813
			c-0.103,0.507-0.384,0.835-0.61,1.22c0.751,1.755,2.794,2.22,2.439,5.082c1.166,0.868,2.426,1.64,2.643,3.456
			c2.71,0.204,2.409,3.418,5.286,3.456c0.702,0.652,1.158,1.552,1.219,2.846c0.452,0.158,0.793,0.427,1.423,0.407
			c1.936,2.875,5.378,4.243,6.911,7.521c0.669-0.009,1.012-0.343,1.83-0.203c1.328,0.907,1.968,2.503,3.049,3.659
			c-0.376,0.03-0.125,0.688-0.407,0.812c0.417,0.396,0.668,0.959,1.016,1.423c0.293,2.901,3.249,4.875,4.269,7.724
			c0.799,0.421,1.393,1.047,2.439,1.22c0.3-1.455,0.518-2.162,1.22-3.456c-1.335-1.572,0.311-3.856-0.813-5.285
			c0.294-0.248,0.272-0.812,0.813-0.813c-1.409-2.154-0.118-4.098,0-6.098c0.09-1.53-0.904-2.885-0.204-4.269
			c-0.737-1.611-2.32-3.013-2.439-5.082c-0.093-1.608-0.463-2.835-0.61-4.269c-0.113-1.112,0.228-2.268,0-3.252
			c-0.125-0.542-0.727-1.062-0.812-1.626c-0.239-1.562,0.68-3.534,0.406-5.286c-0.129-0.827-0.865-1.109-0.61-2.033
			c0.156-0.589,0.322-1.169,0.813-1.423c-0.837-3.494,1.756-8.019-1.22-10.57c0.918-2.284-0.055-4.771,0.813-7.928
			c-0.205-0.405-0.899-0.32-0.813-1.016c-0.174-1.327,0.419-1.885,0.407-3.049c-0.684-1.849-1.178-3.46-2.643-4.879
			c-0.018-2.334-1.74-4.227-3.049-5.895c0.712-2.041-0.67-2.552-0.61-4.472c-7.893,1.391-15.281,1.336-21.954-1.017
			c-1.184-1.273-3.415-4.015-1.22-5.692c2.919,0.761,6.135,2.24,9.351,2.033c4.754,1.973,13.25,1.218,15.042-2.439
			c-0.779,0.779-2.162,0.955-3.252,1.423c-1.257-1.409-3.939,0.651-4.269-1.626c1.344-1.359,3.961-0.218,4.879-2.033
			c0.622-0.147,0.598,0.351,1.219,0.203c-0.146-1.164,1.163-0.87,1.016-2.033c-0.49-1.896-0.674-3.929-0.609-5.895
			c-2.404-0.036-4-0.877-5.692-1.626c-0.833,0.387-0.77,1.67-1.829,1.83c-1.359-1.238-1.755,0.572-3.659,0.407
			c-0.64-0.038-0.26-1.095-1.016-1.017c-0.987,1.609-4.683,0.071-6.099,2.033c-0.3-0.026-0.786-0.393-1.423-0.61
			c-0.465,0.416-0.769,0.993-1.626,1.017c-0.905-0.112-1.257-0.776-2.236-0.813c-1.802,1.86-4.574,0.034-6.302,1.423
			c-0.629-0.184-0.777-0.849-1.626-0.813c-0.822,0.059-0.771,0.99-1.626,1.016c-0.425-0.388-0.971-0.655-1.626-0.813
			c-2.066,1.028-3.73,0.494-5.692,1.626c-0.727-0.221-1.289-0.608-2.033-0.813c-3.81,1.285-6.016-3.003-9.554-3.252
			c-0.295-0.021-0.953,0.373-1.22,0.406c-2.036,0.256-3.393-1.413-5.082-0.406c-0.326-0.361-0.604-1.822-1.423-1.017
			C48.15,303.84,48.354,307.43,50.412,309.167z M87.001,317.298c1.637,1.331,5.432,1.784,7.725,1.219
			c3.753,0.911,10.425,1.025,13.01-2.439c-0.023-0.248-0.061-0.481-0.407-0.407C102.335,320.063,92.448,317.704,87.001,317.298z
			 M59.966,338.845c-2.487,1.923-4.936,4.792-4.879,8.741c0.022,1.544,0.772,3.096,1.016,4.065c0.967,3.842,1.486,8.506,1.83,12.807
			c0.894,11.188,1.644,21.747,1.626,32.524c-0.018,11.01,0.609,20.645,0,30.288c-0.101,1.593,0.032,3.182,0,5.082
			c-0.047,2.744-1.065,5.481-1.017,8.131c0.007,0.367,0.232,0.854,0.204,1.22c-0.672,8.419-1.741,17.812-3.659,26.02
			c-1.993,8.526-4.77,15.031-6.708,23.58c-1.021,4.505-2.043,9.632-0.812,14.229c0.464,0.552,1.175,0.857,1.423,1.626
			c10.969,4.448,27.178,3.736,38.623,6.099c3.418,0.705,7.782,0.962,11.79,1.829c4.564,0.987,8.759,3.006,12.197,2.032
			c0.319,0.088,0.174,0.64,0.813,0.407c1.545-0.702,3.34-1.501,4.675-1.83c3.859-6.261,1.229-15.328,1.83-23.782
			c0.351-4.934,0.636-9.505-0.204-14.637c-0.363-2.217-0.453-4.209-0.61-6.505c-0.242-3.54-0.955-7.008-1.22-10.367
			c-0.172-2.174-0.358-4.181-1.016-6.098c0.582-0.772,0.278-1.521,0.203-2.643c0.114-0.496,1.035-0.186,0.813-1.017
			c-0.229-4.416-1.783-9.021-1.83-12.807c-8.72-3.273-15.582-8.404-22.36-13.619c-0.502-1.707-1.527-3.34-2.44-4.879
			c-2.974-5.014-5.66-10.062-8.131-15.449c-2.486-5.418-4.775-11.041-7.318-16.262c-0.763-1.567-2.504-3.553-1.626-5.488
			c0.632-0.53,1.513-0.007,2.033,0.203c4.92,12.156,11.358,25.8,17.685,36.793c0.937,1.626,2.33,3.814,3.659,5.082
			c1.918,1.828,8.576,2.93,10.708,4.472c2.207,1.597,0.366,3.1,2.912,4.27c0.027-0.65-0.201-1.556,0.61-1.423
			c2.805,1.402,7.862,1.842,9.147,3.861c-0.708,0.994-1.961-0.479-3.049-0.406c0.342,1.422,2.145,1.597,3.252,2.032
			c3.802,1.5,7.538,3.38,11.383,4.676c1.935,1.725,4.479,2.84,6.708,4.27c3.937-4.17,14.525-0.144,13.417-8.538
			c-0.961-0.461-1.007-1.839-2.033-2.236c-4.028-6.339-11.712-9.022-17.278-13.823c-0.339,0-0.678,0-1.017,0
			c-4.083-3.641-9.942-5.506-14.433-8.741c-2.642-4.788-5.571-8.089-7.928-13.01c-0.653-0.702-1.647-1.063-1.83-2.236
			c0.046-0.699,0.838-0.653,1.22-1.017c-2.062-2.221-3.088-5.247-6.301-6.708c-1.455-4.916-5.385-7.354-8.945-10.164
			c0.046-0.859-0.313-1.313-0.406-2.033c-2.204-0.101-2.854-1.753-3.659-3.252c-0.724-0.292-1.825-0.208-2.236-0.813
			c0.026-2.33-2.062-2.545-2.846-4.065c-0.379-3.416-2.332-5.257-4.472-6.912c-2.052-5.475-5.401-9.273-8.131-14.432
			c-5.205-1.978-7.288-7.077-10.977-10.57C60.339,337.998,60,338.269,59.966,338.845z M115.46,434.588
			c-1.085-0.14-2.045-1.109-3.456-0.61C113.125,434.082,114.167,435.333,115.46,434.588z M153.27,447.598
			c0.989,0.417,2.277,0.998,2.846,1.423c1.648,1.23,1.82,3.443,3.456,4.878c2.399,2.104,6.703,2.224,9.96,0.813
			c3.018-3.059-0.137-7.098-2.643-9.147c-0.185-0.491-0.6,0.461-1.22,0.203c-2.539-2.949-5.52-5.457-11.18-5.285
			c-0.741,2.401-2.988,3.831-4.472,4.879c-1.314,0.435-3.999,0.023-5.285,0.61C148.75,446.347,150.615,446.477,153.27,447.598z
			 M149.204,453.898c3.271,3.06,8.703,5.502,12.807,5.489c1.132-0.004,3.08-0.011,3.456-1.423c-3.261-0.53-5.732-0.578-7.725-2.236
			c-1.133-0.943-1.283-2.666-2.236-3.862c-1.502-1.886-5.981-3.493-9.147-3.456C146.498,450.349,147.85,452.633,149.204,453.898z
			 M153.879,501.669c0.708-14.305,2.462-28.645,2.236-40.858c-0.69-0.394-1.749-0.42-2.439-0.813
			C155.033,472.965,153.461,488.219,153.879,501.669z M151.847,517.728c0.931-0.468,1.056-2.449,1.423-2.846
			c-0.589-1.9,1.083-8.678,0.203-11.79C152.671,508.615,151.431,513.436,151.847,517.728z M65.048,513.052
			c1.643,3.956,1.601,8.233,1.016,11.994c0.336,0.545,1.031,0.729,1.423,1.219c3.006-1.271,7.633,0.929,10.773,1.83
			c1.283,0.368,2.209,1.096,3.049,1.423c1.044,0.406,2.802,0.55,4.269,0.813c3.262,0.584,5.216,0.638,7.725,0.203
			c0.757-2.021,2.359-3.197,3.659-4.676c-1.567,0.373-3.632-0.366-5.082,0.813c-3.65-0.768-8.031-1.265-10.367-3.862
			c-0.802-2.431-1.698-6.255-2.642-8.741C74.49,514.149,68.927,512.332,65.048,513.052z M151.44,533.177
			c1.29-4.014,0.92-8.428,0.813-11.79c-0.885,0.207-0.935-0.421-1.423-0.61C150.041,525.588,149.101,530.517,151.44,533.177z
			 M103.061,538.868c0.139-0.32,0.809,0.53,1.626,0.203c-0.069-1.083-0.984-1.319-1.22-2.235c1.509-2.463,3.135,0.863,3.862,2.235
			c0.407,0,0.813,0,1.22,0c0.021-1.036-0.744-1.288-0.813-2.235c0.259-0.419,0.324-1.031,1.016-1.017
			c0.833-0.087,1.062,0.429,1.423,0.813c0.259-0.487,0.663-0.828,1.423-0.813c0.579,0.369,0.753,1.144,1.829,1.017
			c0.103-0.778,0.185-1.578,1.017-1.627c1.094-0.077,0.982,1.051,2.033,1.017c0.158-0.791,0.233-1.664,0.813-2.033
			c1.027-0.214,1.163,0.464,2.032,0.407c-0.229-2.38-4.108-5.322-6.301-5.691c-1.585-0.268-2.955-1.251-4.269-1.627
			c-2.522-0.721-5.274-0.61-6.911-0.609c-0.204,0.271-0.192,0.756-0.61,0.812c-0.948-0.094-1.306,0.4-2.033,0
			c-2.623,1.312-2.816,4.055-5.488,5.082c-4.646,1.787-10.775-1.477-15.652-1.829c0.867,1.408-0.399,2.213-0.204,4.065
			c0.635,0.52,0.884,0.501,1.626,0.609c0.837-0.992,0.155-3.504,1.83-3.658c1.349,0.654,0.367,2.475,0,3.658
			c0.505,0.241,1.196,0.295,1.83,0.407c0.179-1.108,0.139-2.436,1.016-2.846c0.774-0.097,1.269,0.086,1.423,0.609
			c-0.525,0.507-1.071,2.54,0,2.846c0.571-0.378,0.387-1.511,0.407-2.439c0.797-0.188,0.755-0.442,1.626-0.202
			c0.314,0.295,0.179,1.04,0.203,1.625c0.505,0.032,0.629-0.319,1.016-0.406c1.201,0.222,0.455,2.392,2.033,2.236
			c-0.427-0.936-0.226-2.363,1.017-2.236c0.595,0.557,0.601,1.703,1.219,2.236c1.235-0.629,0.84,0.526,1.83,0.609
			c0.327-0.438,0.088-0.977,0-1.829c0.607-0.003,0.691-0.528,1.22-0.61c0.545,0.98,2.186,1.833,2.033,2.846
			c0.843-0.055,0.792,0.268,1.423,0c-0.126-0.754-0.831-0.93-0.609-2.032c1.008-1.334,2.317-0.194,2.439,1.423
			C102.798,536.686,103.487,538.179,103.061,538.868z M68.707,530.94c0.286-0.392,0.537-0.817,0.61-1.423
			c-0.404-0.002-0.259-0.555-0.813-0.406C68.597,530.06,68.11,530.41,68.707,530.94z M70.74,532.566
			c0.452,0.158,0.792,0.428,1.423,0.407c0.541-1.141-0.264-2.288,0.203-3.05c-0.471,0.065-0.78-0.032-1.016-0.203
			C70.775,530.531,70.36,531.288,70.74,532.566z M74.195,533.787c0.546,0.267,1.081,0.545,1.626,0.812
			c0.24-1.183,0.716-2.13,1.016-3.253c-0.692-0.027-1.644-0.534-2.643-0.812C73.466,531.532,74.549,533.164,74.195,533.787z
			 M154.896,533.38c0.279-0.466,1.013-0.478,1.219-1.017c-0.406,0-0.812,0-1.219,0C155.16,532.868,154.3,533.207,154.896,533.38z
			 M157.335,535.006c0.436,0.377,1.489,0.138,2.236,0.203c0.743-1.493,2.987-1.485,3.862-2.846
			C160.143,531.986,159.458,534.216,157.335,535.006z M162.213,535.412c2.09,0.076,3.581-2.075,5.692-2.643
			C165.45,532.328,163.608,534.129,162.213,535.412z M178.679,533.177c-3.597-0.518-4.902,0.478-7.115,1.22
			c0.392,0.718-0.066,1.112-0.406,1.626C174.306,536.071,176.713,533.851,178.679,533.177z M176.24,536.226
			c2.48,0.634,4.737-2.603,7.928-1.829c0,1.422-1.906,0.938-2.236,2.032c0.699-0.089,1.139,0.081,1.626,0.204
			c1.299-1.778,4.372-2.324,6.708-1.627c0.48-0.7,2.812-0.561,3.456,0.203c0.15-0.324,0.995,0.047,0.813-0.609
			c-4.493-0.517-9.61-1.065-14.433-1.22C180.339,535.111,176.941,534.774,176.24,536.226z M166.483,535.819
			c0.625-0.143,0.391-0.143,1.016,0c-0.133-1.082,0.932-0.966,1.22-1.627C167.805,534.566,166.644,534.693,166.483,535.819z
			 M110.785,539.071c3.212-0.119,7.282,1.036,8.334-2.643c-1.473,0.863-2.815,2.323-4.878,1.017
			c-0.652,1.018-1.093,1.165-2.643,1.423c-0.594-0.151-0.393-1.098-1.22-1.017C110.377,539.021,111.231,538.07,110.785,539.071z"/>
		<path fill-rule="evenodd" clip-rule="evenodd" fill="#FFFFFF" d="M178.476,313.231c-0.284,0.312-1.052,0.578-1.423,0.204
			c-0.609,0.134,0.194,0.435,0,0.813c-0.698-0.156-1.144-0.562-0.813-1.22C177.499,313.186,177.764,313.348,178.476,313.231z"/>
	</g>
</g>
<ellipse fill-rule="evenodd" clip-rule="evenodd" cx="97.604" cy="269.083" rx="4.271" ry="3.562"/>
<line fill="none" stroke="#000000" stroke-width="5" stroke-miterlimit="10" x1="85" y1="775.558" x2="563" y2="775.558"/>
<text transform="matrix(1 0 0 1 6.9985 820)"><tspan x="0" y="0" fill="#FFFFFF" font-family="'TitilliumWeb-Bold'" font-size="32">J</tspan><tspan x="9.664" y="0" font-family="'TitilliumWeb-Bold'" font-size="32">OIN THE MOVEMENT:  ONLINE&amp;LUGANO</tspan></text>
</svg>
