<?xml version="1.0" encoding="utf-8"?>
<!-- Generator: Adobe Illustrator 16.0.0, SVG Export Plug-In . SVG Version: 6.00 Build 0)  -->
<!DOCTYPE svg PUBLIC "-//W3C//DTD SVG 1.1//EN" "http://www.w3.org/Graphics/SVG/1.1/DTD/svg11.dtd">
<svg version="1.1" id="Layer_1" xmlns="http://www.w3.org/2000/svg" xmlns:xlink="http://www.w3.org/1999/xlink" x="0px" y="0px"
	 width="841.89px" height="1190.55px" viewBox="0 0 841.89 1190.55" enable-background="new 0 0 841.89 1190.55"
	 xml:space="preserve">
<image overflow="visible" width="1891" height="1416" xlink:href="C5739DE9.jpg"  transform="matrix(0.1179 0 0 0.1337 418 997.2715)">
</image>
<image overflow="visible" width="2335" height="2950" xlink:href="../../../Documents/GitHub/Project02-1314/analysis/personas/persona1.png"  transform="matrix(0.1099 0 0 0.1099 0 207.665)">
</image>
<image overflow="visible" width="3491" height="3495" xlink:href="../../../Documents/GitHub/Project02-1314/analysis/personas/persona2.png"  transform="matrix(0.1006 0 0 0.1055 143.3335 150.999)">
</image>
<image overflow="visible" width="1348" height="1541" xlink:href="../../../Documents/GitHub/Project02-1314/analysis/personas/Persona3.png"  transform="matrix(0.1904 0 0 0.1914 249 525.7661)">
</image>
<image overflow="visible" width="2473" height="1992" xlink:href="../../../Documents/GitHub/Project02-1314/analysis/activity-diagrams/activity-diagram-1.png"  transform="matrix(0.0901 0 0 0.0935 4 998.2715)">
</image>
<image overflow="visible" width="1354" height="1438" xlink:href="../../../Documents/GitHub/Project02-1314/analysis/personas/Persona4.png"  transform="matrix(0.1895 0 0 0.2054 0 517.605)">
</image>
<rect fill="#FFFFFF" stroke="#000000" stroke-width="1.2039" stroke-miterlimit="10" width="841.89" height="215.973"/>
<text transform="matrix(1 0 0 1 659.9453 983.4365)"><tspan x="0" y="0" font-family="'TitilliumText25L-999wt'" font-size="8.0165">Name of the Activity</tspan><tspan x="0" y="9.62" font-family="'TitilliumText25L-999wt'" font-size="8.0165">[01]Subject: </tspan><tspan x="0" y="19.239" font-family="'TitilliumText25L-999wt'" font-size="8.0165">       Andy Agerjoose</tspan><tspan x="0" y="38.479" font-family="'TitilliumText25L-999wt'" font-size="8.0165">[02]Object:</tspan><tspan x="0" y="48.099" font-family="'TitilliumText25L-999wt'" font-size="8.0165">       Daily grind </tspan><tspan x="0" y="67.339" font-family="'TitilliumText25L-999wt'" font-size="8.0165">[03]Outcome:</tspan><tspan x="0" y="76.958" font-family="'TitilliumText25L-999wt'" font-size="8.0165">        Improvement in quality of life</tspan><tspan x="0" y="96.197" font-family="'TitilliumText25L-999wt'" font-size="8.0165">[04]Mediating Artifacts:</tspan><tspan x="0" y="105.817" font-family="'TitilliumText25L-999wt'" font-size="8.0165">       His hobbies and relevant objects</tspan><tspan x="0" y="125.057" font-family="'TitilliumText25L-999wt'" font-size="8.0165">[05]Rules:</tspan><tspan x="0" y="134.677" font-family="'TitilliumText25L-999wt'" font-size="8.0165">       His  age, experience and wisdom means he</tspan><tspan x="0" y="144.297" font-family="'TitilliumText25L-999wt'" font-size="8.0165">       always has the last word.</tspan><tspan x="0" y="163.536" font-family="'TitilliumText25L-999wt'" font-size="8.0165">[06]Community:</tspan><tspan x="0" y="173.156" font-family="'TitilliumText25L-999wt'" font-size="8.0165">       Old age home</tspan><tspan x="0" y="192.396" font-family="'TitilliumText25L-999wt'" font-size="8.0165">[07]Roles:</tspan><tspan x="0" y="202.016" font-family="'TitilliumText25L-999wt'" font-size="8.0165">        Senior most member in his community</tspan></text>
<text transform="matrix(1 0 0 1 233.9448 988.2754)"><tspan x="0" y="0" font-family="'TitilliumText25L-999wt'" font-size="8.2">(01) Subject: </tspan><tspan x="0" y="9.84" font-family="'TitilliumText25L-999wt'" font-size="8.2">       Beatrice</tspan><tspan x="0" y="29.52" font-family="'TitilliumText25L-999wt'" font-size="8.2">(02) Object: </tspan><tspan x="0" y="39.359" font-family="'TitilliumText25L-999wt'" font-size="8.2">      Grandchildren</tspan><tspan x="0" y="59.039" font-family="'TitilliumText25L-999wt'" font-size="8.2">(03) Outcome: </tspan><tspan x="0" y="68.88" font-family="'TitilliumText25L-999wt'" font-size="8.2">       Happy Parents</tspan><tspan x="0" y="88.56" font-family="'TitilliumText25L-999wt'" font-size="8.2">(04) Mediating Artifacts:</tspan><tspan x="0" y="98.399" font-family="'TitilliumText25L-999wt'" font-size="8.2">        Her House</tspan><tspan x="0" y="118.079" font-family="'TitilliumText25L-999wt'" font-size="8.2">(05) Rules: </tspan><tspan x="0" y="127.92" font-family="'TitilliumText25L-999wt'" font-size="8.2">      From 9-20 she cares about the grandchildren </tspan><tspan x="0" y="137.76" font-family="'TitilliumText25L-999wt'" font-size="8.2">     and they make her happy.</tspan><tspan x="0" y="157.439" font-family="'TitilliumText25L-999wt'" font-size="8.2">(06) Community:</tspan><tspan x="0" y="167.279" font-family="'TitilliumText25L-999wt'" font-size="8.2">        Family </tspan><tspan x="0" y="186.96" font-family="'TitilliumText25L-999wt'" font-size="8.2">(07) Roles:</tspan><tspan x="0" y="196.8" font-family="'TitilliumText25L-999wt'" font-size="8.2">       The grandmother is always right</tspan></text>
<text transform="matrix(1 0 0 1 111.0073 137.832)" font-family="'TitilliumText25L-999wt'" font-size="48">COMMUNITY ANALYSIS POSTER</text>
<rect x="526.085" y="215.973" fill="#FFFFFF" stroke="#000000" stroke-width="1.0008" stroke-miterlimit="10" width="315.805" height="604.263"/>
<text transform="matrix(1 0 0 1 695.5762 360.5796)" font-family="'TitilliumText25L-999wt'" font-size="36" glyph-orientation-vertical="0" writing-mode="tb">PERSONAS</text>
<rect x="0" y="821.579" fill="#FFFFFF" stroke="#000000" stroke-width="0.814" stroke-miterlimit="10" width="841.89" height="136.173"/>
<text transform="matrix(1 0 0 1 275.5977 907.0742)" font-family="'TitilliumText25L-999wt'" font-size="36">ACTIVITY ANALYSIS</text>
</svg>
